<svg width="30" height="22" viewBox="0 0 30 22" fill="none" xmlns="http://www.w3.org/2000/svg">
<g clip-path="url(#clip0_185_1766)">
<path d="M15 0C11.1375 0 8.1 3.13 7.67531 7.125C6.8586 7.26592 6.09272 7.63949 5.45857 8.20626C4.82442 8.77303 4.34554 9.51196 4.0725 10.345C1.76625 11.054 0 13.248 0 16C0 19.324 2.50875 22 5.625 22H24.375C27.4912 22 30 19.324 30 16C30 14.24 29.1984 12.664 28.0369 11.562C27.8194 8.048 25.1916 5.244 21.885 5.062C20.7563 2.133 18.1669 0 15 0ZM15 2C17.5894 2 19.6594 3.77 20.3906 6.28L20.5969 7H21.5625C24.1453 7 26.25 9.245 26.25 12V12.5L26.6306 12.813C27.09 13.1885 27.4633 13.6706 27.7222 14.2228C27.9811 14.7749 28.1188 15.3827 28.125 16C28.125 18.276 26.5088 20 24.375 20H5.625C3.49125 20 1.875 18.276 1.875 16C1.875 13.98 3.23438 12.412 4.95 12.094L5.56594 11.969L5.68313 11.311C5.96438 9.964 7.08375 9 8.4375 9H9.375V8C9.375 4.63 11.8406 2 15 2ZM15 7.594L14.325 8.281L10.575 12.281L11.925 13.721L14.0625 11.437V18H15.9375V11.437L18.075 13.719L19.425 12.279L15.675 8.279L15 7.594Z" fill="#009DE1"/>
</g>
<defs>
<clipPath id="clip0_185_1766">
<rect width="30" height="22" fill="white"/>
</clipPath>
</defs>
</svg>
