<svg width="50" height="51" viewBox="0 0 50 51" fill="none" xmlns="http://www.w3.org/2000/svg">
<mask id="path-2-inside-1_185_1281" fill="white">
<path d="M39.3779 35.9245H34.2951V12.2047C34.2951 11.8849 34.0166 11.6256 33.673 11.6256H31.5883V9.57917C31.5883 9.25932 31.3099 9 30.9663 9H26.7854C26.4419 9 26.1634 9.25932 26.1634 9.57917V11.6256H15.5233V9.57917C15.5233 9.25932 15.2449 9 14.9013 9H10.7204C10.3769 9 10.0984 9.25932 10.0984 9.57917V11.6256H9.62237C9.27879 11.6256 9.00035 11.8849 9.00035 12.2047V36.5037H9V39.1585C9 40.0229 9.3613 40.8355 10.0174 41.4463C10.6734 42.0571 11.5461 42.3935 12.4743 42.3935C12.4856 42.3935 12.4968 42.3935 12.5079 42.3934L36.5257 42.3935C37.4529 42.3935 38.3254 42.0573 38.9827 41.4463C39.6386 40.8355 40 40.023 40 39.1586V36.5037C39.9999 36.1838 39.7215 35.9245 39.3779 35.9245ZM29.2662 12.2047V10.1583H30.3443V13.4789H29.2662V12.2047ZM27.4075 10.1583H28.022V11.6256H27.4075V10.1583ZM13.201 12.2047V10.1583H14.2792V13.4789H13.201V12.2047ZM11.3425 10.1583H11.957V11.6256H11.3425V10.1583ZM14.7046 36.5037V39.1585C14.7046 40.2952 13.7187 41.2215 12.5013 41.235H12.4744L12.4743 41.2352C11.8782 41.2352 11.3181 41.0193 10.897 40.6272C10.4758 40.2351 10.244 39.7135 10.244 39.1584V36.5036H10.2443V12.7839H11.957V14.0581C11.957 14.3779 12.2354 14.6372 12.579 14.6372H14.9012C15.2448 14.6372 15.5232 14.3779 15.5232 14.0581V12.7839H28.022V14.0581C28.022 14.3779 28.3004 14.6372 28.644 14.6372H30.9662C31.3098 14.6372 31.5882 14.3779 31.5882 14.0581V12.7839H33.051V35.9245H15.3266C14.9831 35.9245 14.7046 36.1838 14.7046 36.5037ZM38.7559 39.1585C38.7559 39.7136 38.524 40.2351 38.1033 40.6268C37.6814 41.0191 37.1213 41.235 36.5261 41.235C36.526 41.235 36.5258 41.235 36.5257 41.235H15.1364C15.6431 40.6727 15.9486 39.9481 15.9486 39.1584V37.0828H38.7559V39.1585Z"/>
</mask>
<path d="M39.3779 35.9245H34.2951V12.2047C34.2951 11.8849 34.0166 11.6256 33.673 11.6256H31.5883V9.57917C31.5883 9.25932 31.3099 9 30.9663 9H26.7854C26.4419 9 26.1634 9.25932 26.1634 9.57917V11.6256H15.5233V9.57917C15.5233 9.25932 15.2449 9 14.9013 9H10.7204C10.3769 9 10.0984 9.25932 10.0984 9.57917V11.6256H9.62237C9.27879 11.6256 9.00035 11.8849 9.00035 12.2047V36.5037H9V39.1585C9 40.0229 9.3613 40.8355 10.0174 41.4463C10.6734 42.0571 11.5461 42.3935 12.4743 42.3935C12.4856 42.3935 12.4968 42.3935 12.5079 42.3934L36.5257 42.3935C37.4529 42.3935 38.3254 42.0573 38.9827 41.4463C39.6386 40.8355 40 40.023 40 39.1586V36.5037C39.9999 36.1838 39.7215 35.9245 39.3779 35.9245ZM29.2662 12.2047V10.1583H30.3443V13.4789H29.2662V12.2047ZM27.4075 10.1583H28.022V11.6256H27.4075V10.1583ZM13.201 12.2047V10.1583H14.2792V13.4789H13.201V12.2047ZM11.3425 10.1583H11.957V11.6256H11.3425V10.1583ZM14.7046 36.5037V39.1585C14.7046 40.2952 13.7187 41.2215 12.5013 41.235H12.4744L12.4743 41.2352C11.8782 41.2352 11.3181 41.0193 10.897 40.6272C10.4758 40.2351 10.244 39.7135 10.244 39.1584V36.5036H10.2443V12.7839H11.957V14.0581C11.957 14.3779 12.2354 14.6372 12.579 14.6372H14.9012C15.2448 14.6372 15.5232 14.3779 15.5232 14.0581V12.7839H28.022V14.0581C28.022 14.3779 28.3004 14.6372 28.644 14.6372H30.9662C31.3098 14.6372 31.5882 14.3779 31.5882 14.0581V12.7839H33.051V35.9245H15.3266C14.9831 35.9245 14.7046 36.1838 14.7046 36.5037ZM38.7559 39.1585C38.7559 39.7136 38.524 40.2351 38.1033 40.6268C37.6814 41.0191 37.1213 41.235 36.5261 41.235C36.526 41.235 36.5258 41.235 36.5257 41.235H15.1364C15.6431 40.6727 15.9486 39.9481 15.9486 39.1584V37.0828H38.7559V39.1585Z" fill="#009DE1"/>
<path d="M34.2951 35.9245H32.2951V37.9245H34.2951V35.9245ZM31.5883 11.6256H29.5883V13.6256H31.5883V11.6256ZM26.1634 11.6256V13.6256H28.1634V11.6256H26.1634ZM15.5233 11.6256H13.5233V13.6256H15.5233V11.6256ZM10.0984 11.6256V13.6256H12.0984V11.6256H10.0984ZM9.00035 36.5037V38.5037H11.0004V36.5037H9.00035ZM9 36.5037V34.5037H7V36.5037H9ZM10.0174 41.4463L11.3803 39.9825L11.3802 39.9825L10.0174 41.4463ZM12.5079 42.3934L12.5079 40.3934H12.4961L12.4843 40.3935L12.5079 42.3934ZM36.5257 42.3935L36.5257 44.3935H36.5257V42.3935ZM38.9827 41.4463L40.3444 42.9112L40.3457 42.9099L38.9827 41.4463ZM40 36.5037H42V36.5032L40 36.5037ZM29.2662 10.1583V8.15834H27.2662V10.1583H29.2662ZM30.3443 10.1583H32.3443V8.15834H30.3443V10.1583ZM30.3443 13.4789V15.4789H32.3443V13.4789H30.3443ZM29.2662 13.4789H27.2662V15.4789H29.2662V13.4789ZM27.4075 10.1583V8.15834H25.4075V10.1583H27.4075ZM28.022 10.1583H30.022V8.15834H28.022V10.1583ZM28.022 11.6256V13.6256H30.022V11.6256H28.022ZM27.4075 11.6256H25.4075V13.6256H27.4075V11.6256ZM13.201 10.1583V8.15834H11.201V10.1583H13.201ZM14.2792 10.1583H16.2792V8.15834H14.2792V10.1583ZM14.2792 13.4789V15.4789H16.2792V13.4789H14.2792ZM13.201 13.4789H11.201V15.4789H13.201V13.4789ZM11.3425 10.1583V8.15834H9.34245V10.1583H11.3425ZM11.957 10.1583H13.957V8.15834H11.957V10.1583ZM11.957 11.6256V13.6256H13.957V11.6256H11.957ZM11.3425 11.6256H9.34245V13.6256H11.3425V11.6256ZM12.5013 41.235V43.235H12.5124L12.5235 43.2349L12.5013 41.235ZM12.4744 41.235V39.235H11.2812L10.7144 40.2851L12.4744 41.235ZM12.4743 41.2352V43.2352H13.6676L14.2344 42.1851L12.4743 41.2352ZM10.897 40.6272L9.53418 42.091H9.53418L10.897 40.6272ZM10.244 36.5036V34.5036H8.24397V36.5036H10.244ZM10.2443 36.5036V38.5036H12.2443V36.5036H10.2443ZM10.2443 12.7839V10.7839H8.24432V12.7839H10.2443ZM11.957 12.7839H13.957V10.7839H11.957V12.7839ZM15.5232 12.7839V10.7839H13.5232V12.7839H15.5232ZM28.022 12.7839H30.022V10.7839H28.022V12.7839ZM31.5882 12.7839V10.7839H29.5882V12.7839H31.5882ZM33.051 12.7839H35.051V10.7839H33.051V12.7839ZM33.051 35.9245V37.9245H35.051V35.9245H33.051ZM38.1033 40.6268L39.465 42.0917L39.4662 42.0906L38.1033 40.6268ZM15.1364 41.235L13.6506 39.8962L10.6421 43.235H15.1364V41.235ZM15.9486 37.0828V35.0828H13.9486V37.0828H15.9486ZM38.7559 37.0828H40.7559V35.0828H38.7559V37.0828ZM39.3779 33.9245H34.2951V37.9245H39.3779V33.9245ZM36.2951 35.9245V12.2047H32.2951V35.9245H36.2951ZM36.2951 12.2047C36.2951 10.6484 34.9845 9.62556 33.673 9.62556V13.6256C33.0488 13.6256 32.2951 13.1214 32.2951 12.2047H36.2951ZM33.673 9.62556H31.5883V13.6256H33.673V9.62556ZM33.5883 11.6256V9.57917H29.5883V11.6256H33.5883ZM33.5883 9.57917C33.5883 8.02284 32.2777 7 30.9663 7V11C30.342 11 29.5883 10.4958 29.5883 9.57917H33.5883ZM30.9663 7H26.7854V11H30.9663V7ZM26.7854 7C25.474 7 24.1634 8.02284 24.1634 9.57917H28.1634C28.1634 10.4958 27.4097 11 26.7854 11V7ZM24.1634 9.57917V11.6256H28.1634V9.57917H24.1634ZM26.1634 9.62556H15.5233V13.6256H26.1634V9.62556ZM17.5233 11.6256V9.57917H13.5233V11.6256H17.5233ZM17.5233 9.57917C17.5233 8.02284 16.2127 7 14.9013 7V11C14.277 11 13.5233 10.4958 13.5233 9.57917H17.5233ZM14.9013 7H10.7204V11H14.9013V7ZM10.7204 7C9.40898 7 8.09841 8.02284 8.09841 9.57917H12.0984C12.0984 10.4958 11.3447 11 10.7204 11V7ZM8.09841 9.57917V11.6256H12.0984V9.57917H8.09841ZM10.0984 9.62556H9.62237V13.6256H10.0984V9.62556ZM9.62237 9.62556C8.31092 9.62556 7.00035 10.6484 7.00035 12.2047H11.0004C11.0004 13.1214 10.2467 13.6256 9.62237 13.6256V9.62556ZM7.00035 12.2047V36.5037H11.0004V12.2047H7.00035ZM9.00035 34.5037H9V38.5037H9.00035V34.5037ZM7 36.5037V39.1585H11V36.5037H7ZM7 39.1585C7 40.6009 7.60902 41.9367 8.65455 42.9101L11.3802 39.9825C11.1136 39.7343 11 39.445 11 39.1585H7ZM8.65447 42.91C9.69509 43.8789 11.0603 44.3935 12.4743 44.3935V40.3935C12.0318 40.3935 11.6518 40.2354 11.3803 39.9825L8.65447 42.91ZM12.4743 44.3935C12.4839 44.3935 12.5067 44.3935 12.5315 44.3932L12.4843 40.3935C12.4864 40.3935 12.487 40.3935 12.4852 40.3935C12.483 40.3935 12.4803 40.3935 12.4743 40.3935V44.3935ZM12.5079 44.3934L36.5257 44.3935L36.5257 40.3935L12.5079 40.3934L12.5079 44.3934ZM36.5257 44.3935C37.9393 44.3935 39.3035 43.8787 40.3444 42.9112L37.6211 39.9814C37.3473 40.2358 36.9666 40.3935 36.5257 40.3935V44.3935ZM40.3457 42.9099C41.3908 41.9367 42 40.6011 42 39.1586H38C38 39.445 37.8864 39.7343 37.6197 39.9826L40.3457 42.9099ZM42 39.1586V36.5037H38V39.1586H42ZM42 36.5032C41.9997 34.9473 40.6895 33.9245 39.3779 33.9245V37.9245C38.7535 37.9245 38.0002 37.4203 38 36.5041L42 36.5032ZM31.2662 12.2047V10.1583H27.2662V12.2047H31.2662ZM29.2662 12.1583H30.3443V8.15834H29.2662V12.1583ZM28.3443 10.1583V13.4789H32.3443V10.1583H28.3443ZM30.3443 11.4789H29.2662V15.4789H30.3443V11.4789ZM31.2662 13.4789V12.2047H27.2662V13.4789H31.2662ZM27.4075 12.1583H28.022V8.15834H27.4075V12.1583ZM26.022 10.1583V11.6256H30.022V10.1583H26.022ZM28.022 9.62556H27.4075V13.6256H28.022V9.62556ZM29.4075 11.6256V10.1583H25.4075V11.6256H29.4075ZM15.201 12.2047V10.1583H11.201V12.2047H15.201ZM13.201 12.1583H14.2792V8.15834H13.201V12.1583ZM12.2792 10.1583V13.4789H16.2792V10.1583H12.2792ZM14.2792 11.4789H13.201V15.4789H14.2792V11.4789ZM15.201 13.4789V12.2047H11.201V13.4789H15.201ZM11.3425 12.1583H11.957V8.15834H11.3425V12.1583ZM9.95698 10.1583V11.6256H13.957V10.1583H9.95698ZM11.957 9.62556H11.3425V13.6256H11.957V9.62556ZM13.3425 11.6256V10.1583H9.34245V11.6256H13.3425ZM12.7046 36.5037V39.1585H16.7046V36.5037H12.7046ZM12.7046 39.1585C12.7046 39.15 12.7071 39.1412 12.7086 39.1378C12.7093 39.1362 12.7051 39.1461 12.6884 39.1619C12.6537 39.1946 12.5838 39.234 12.4791 39.2352L12.5235 43.2349C14.7007 43.2108 16.7046 41.5224 16.7046 39.1585H12.7046ZM12.5013 39.235H12.4744V43.235H12.5013V39.235ZM10.7144 40.2851L10.7143 40.2852L14.2344 42.1851L14.2344 42.185L10.7144 40.2851ZM12.4743 39.2352C12.3639 39.2352 12.2964 39.1974 12.2597 39.1633L9.53418 42.091C10.3399 42.8411 11.3925 43.2352 12.4743 43.2352V39.2352ZM12.2597 39.1633C12.2495 39.1538 12.244 39.1468 12.2416 39.1435C12.2392 39.1402 12.2392 39.1395 12.2401 39.1415C12.241 39.1435 12.2421 39.1467 12.243 39.1508C12.2438 39.1548 12.244 39.1576 12.244 39.1584H8.24397C8.24397 40.2912 8.72332 41.3361 9.53418 42.091L12.2597 39.1633ZM12.244 39.1584V36.5036H8.24397V39.1584H12.244ZM10.244 38.5036H10.2443V34.5036H10.244V38.5036ZM12.2443 36.5036V12.7839H8.24432V36.5036H12.2443ZM10.2443 14.7839H11.957V10.7839H10.2443V14.7839ZM9.95698 12.7839V14.0581H13.957V12.7839H9.95698ZM9.95698 14.0581C9.95698 15.6144 11.2675 16.6372 12.579 16.6372V12.6372C13.2033 12.6372 13.957 13.1414 13.957 14.0581H9.95698ZM12.579 16.6372H14.9012V12.6372H12.579V16.6372ZM14.9012 16.6372C16.2127 16.6372 17.5232 15.6144 17.5232 14.0581H13.5232C13.5232 13.1414 14.2769 12.6372 14.9012 12.6372V16.6372ZM17.5232 14.0581V12.7839H13.5232V14.0581H17.5232ZM15.5232 14.7839H28.022V10.7839H15.5232V14.7839ZM26.022 12.7839V14.0581H30.022V12.7839H26.022ZM26.022 14.0581C26.022 15.6144 27.3326 16.6372 28.644 16.6372V12.6372C29.2683 12.6372 30.022 13.1414 30.022 14.0581H26.022ZM28.644 16.6372H30.9662V12.6372H28.644V16.6372ZM30.9662 16.6372C32.2777 16.6372 33.5882 15.6144 33.5882 14.0581H29.5882C29.5882 13.1414 30.3419 12.6372 30.9662 12.6372V16.6372ZM33.5882 14.0581V12.7839H29.5882V14.0581H33.5882ZM31.5882 14.7839H33.051V10.7839H31.5882V14.7839ZM31.051 12.7839V35.9245H35.051V12.7839H31.051ZM33.051 33.9245H15.3266V37.9245H33.051V33.9245ZM15.3266 33.9245C14.0154 33.9245 12.7046 34.9472 12.7046 36.5037H16.7046C16.7046 37.4204 15.9508 37.9245 15.3266 37.9245V33.9245ZM36.7559 39.1585C36.7559 39.1577 36.756 39.1549 36.7569 39.1509C36.7577 39.1469 36.7589 39.1436 36.7598 39.1416C36.7606 39.1397 36.7606 39.1404 36.7583 39.1436C36.7559 39.1469 36.7506 39.1537 36.7404 39.1631L39.4662 42.0906C40.2767 41.3359 40.7559 40.291 40.7559 39.1585H36.7559ZM36.7416 39.162C36.7032 39.1977 36.6348 39.235 36.5261 39.235V43.235C37.6077 43.235 38.6596 42.8404 39.465 42.0917L36.7416 39.162ZM36.5261 39.235C36.5261 39.235 36.5261 39.235 36.5261 39.235H36.5261C36.5261 39.235 36.5261 39.235 36.5261 39.235C36.5261 39.235 36.5261 39.235 36.5261 39.235H36.5261C36.5261 39.235 36.5261 39.235 36.5261 39.235C36.5261 39.235 36.5261 39.235 36.5261 39.235C36.5261 39.235 36.5261 39.235 36.5261 39.235H36.5261C36.5261 39.235 36.5261 39.235 36.5261 39.235C36.5261 39.235 36.5261 39.235 36.5261 39.235C36.5261 39.235 36.5261 39.235 36.5261 39.235H36.5261H36.5261C36.5261 39.235 36.5261 39.235 36.5261 39.235C36.5261 39.235 36.5261 39.235 36.5261 39.235C36.5261 39.235 36.5261 39.235 36.5261 39.235C36.5261 39.235 36.5261 39.235 36.5261 39.235H36.5261H36.5261C36.5261 39.235 36.5261 39.235 36.5261 39.235C36.5261 39.235 36.5261 39.235 36.5261 39.235C36.5261 39.235 36.5261 39.235 36.5261 39.235C36.5261 39.235 36.5261 39.235 36.5261 39.235C36.5261 39.235 36.5261 39.235 36.5261 39.235H36.5261H36.5261H36.5261C36.5261 39.235 36.5261 39.235 36.5261 39.235C36.5261 39.235 36.5261 39.235 36.5261 39.235C36.5261 39.235 36.5261 39.235 36.5261 39.235C36.5261 39.235 36.5261 39.235 36.5261 39.235C36.5261 39.235 36.5261 39.235 36.5261 39.235C36.5261 39.235 36.5261 39.235 36.5261 39.235C36.5261 39.235 36.5261 39.235 36.5261 39.235C36.5261 39.235 36.5261 39.235 36.5261 39.235C36.5261 39.235 36.5261 39.235 36.5261 39.235C36.5261 39.235 36.5261 39.235 36.5261 39.235H36.5261H36.5261H36.5261H36.5261H36.5261H36.5261H36.5261H36.5261H36.5261H36.5261H36.5261H36.5261H36.526H36.526H36.526H36.526H36.526H36.526C36.526 39.235 36.526 39.235 36.526 39.235C36.526 39.235 36.526 39.235 36.526 39.235C36.526 39.235 36.526 39.235 36.526 39.235C36.526 39.235 36.526 39.235 36.526 39.235C36.526 39.235 36.526 39.235 36.526 39.235C36.526 39.235 36.526 39.235 36.526 39.235C36.526 39.235 36.526 39.235 36.526 39.235C36.526 39.235 36.526 39.235 36.526 39.235C36.526 39.235 36.526 39.235 36.526 39.235C36.526 39.235 36.526 39.235 36.526 39.235C36.526 39.235 36.526 39.235 36.526 39.235C36.526 39.235 36.526 39.235 36.526 39.235H36.526H36.526H36.526H36.526C36.526 39.235 36.526 39.235 36.526 39.235C36.526 39.235 36.526 39.235 36.526 39.235C36.526 39.235 36.526 39.235 36.526 39.235C36.526 39.235 36.526 39.235 36.526 39.235C36.526 39.235 36.526 39.235 36.526 39.235C36.526 39.235 36.526 39.235 36.526 39.235C36.526 39.235 36.526 39.235 36.526 39.235H36.526H36.526H36.526C36.526 39.235 36.526 39.235 36.526 39.235C36.526 39.235 36.526 39.235 36.526 39.235C36.526 39.235 36.526 39.235 36.526 39.235C36.526 39.235 36.526 39.235 36.526 39.235C36.526 39.235 36.526 39.235 36.526 39.235C36.526 39.235 36.526 39.235 36.526 39.235H36.526H36.526H36.526C36.526 39.235 36.526 39.235 36.526 39.235C36.526 39.235 36.526 39.235 36.526 39.235C36.526 39.235 36.526 39.235 36.526 39.235C36.526 39.235 36.526 39.235 36.526 39.235C36.526 39.235 36.526 39.235 36.526 39.235H36.526H36.526C36.526 39.235 36.526 39.235 36.526 39.235C36.526 39.235 36.526 39.235 36.526 39.235C36.526 39.235 36.526 39.235 36.526 39.235C36.526 39.235 36.526 39.235 36.526 39.235C36.526 39.235 36.526 39.235 36.5259 39.235H36.5259H36.5259C36.5259 39.235 36.5259 39.235 36.5259 39.235C36.5259 39.235 36.5259 39.235 36.5259 39.235C36.5259 39.235 36.5259 39.235 36.5259 39.235C36.5259 39.235 36.5259 39.235 36.5259 39.235C36.5259 39.235 36.5259 39.235 36.5259 39.235H36.5259H36.5259C36.5259 39.235 36.5259 39.235 36.5259 39.235C36.5259 39.235 36.5259 39.235 36.5259 39.235C36.5259 39.235 36.5259 39.235 36.5259 39.235C36.5259 39.235 36.5259 39.235 36.5259 39.235C36.5259 39.235 36.5259 39.235 36.5259 39.235H36.5259H36.5259C36.5259 39.235 36.5259 39.235 36.5259 39.235C36.5259 39.235 36.5259 39.235 36.5259 39.235C36.5259 39.235 36.5259 39.235 36.5259 39.235C36.5259 39.235 36.5259 39.235 36.5259 39.235H36.5259H36.5259C36.5259 39.235 36.5259 39.235 36.5259 39.235C36.5259 39.235 36.5259 39.235 36.5259 39.235C36.5259 39.235 36.5259 39.235 36.5259 39.235C36.5259 39.235 36.5259 39.235 36.5259 39.235C36.5259 39.235 36.5259 39.235 36.5259 39.235H36.5259H36.5259C36.5259 39.235 36.5259 39.235 36.5259 39.235C36.5259 39.235 36.5259 39.235 36.5259 39.235C36.5259 39.235 36.5259 39.235 36.5259 39.235C36.5259 39.235 36.5259 39.235 36.5259 39.235H36.5259H36.5259C36.5259 39.235 36.5259 39.235 36.5259 39.235C36.5259 39.235 36.5259 39.235 36.5259 39.235C36.5259 39.235 36.5259 39.235 36.5259 39.235C36.5259 39.235 36.5259 39.235 36.5259 39.235H36.5259H36.5259H36.5259C36.5259 39.235 36.5259 39.235 36.5259 39.235C36.5259 39.235 36.5259 39.235 36.5259 39.235C36.5259 39.235 36.5259 39.235 36.5259 39.235C36.5259 39.235 36.5259 39.235 36.5259 39.235H36.5259H36.5259C36.5259 39.235 36.5259 39.235 36.5259 39.235C36.5259 39.235 36.5259 39.235 36.5259 39.235C36.5259 39.235 36.5259 39.235 36.5259 39.235C36.5259 39.235 36.5259 39.235 36.5259 39.235C36.5259 39.235 36.5259 39.235 36.5258 39.235H36.5258H36.5258C36.5258 39.235 36.5258 39.235 36.5258 39.235C36.5258 39.235 36.5258 39.235 36.5258 39.235C36.5258 39.235 36.5258 39.235 36.5258 39.235C36.5258 39.235 36.5258 39.235 36.5258 39.235C36.5258 39.235 36.5258 39.235 36.5258 39.235H36.5258H36.5258H36.5258C36.5258 39.235 36.5258 39.235 36.5258 39.235C36.5258 39.235 36.5258 39.235 36.5258 39.235C36.5258 39.235 36.5258 39.235 36.5258 39.235C36.5258 39.235 36.5258 39.235 36.5258 39.235C36.5258 39.235 36.5258 39.235 36.5258 39.235H36.5258H36.5258H36.5258C36.5258 39.235 36.5258 39.235 36.5258 39.235C36.5258 39.235 36.5258 39.235 36.5258 39.235C36.5258 39.235 36.5258 39.235 36.5258 39.235C36.5258 39.235 36.5258 39.235 36.5258 39.235C36.5258 39.235 36.5258 39.235 36.5258 39.235C36.5258 39.235 36.5258 39.235 36.5258 39.235H36.5258H36.5258H36.5258C36.5258 39.235 36.5258 39.235 36.5258 39.235C36.5258 39.235 36.5258 39.235 36.5258 39.235C36.5258 39.235 36.5258 39.235 36.5258 39.235C36.5258 39.235 36.5258 39.235 36.5258 39.235C36.5258 39.235 36.5258 39.235 36.5258 39.235C36.5258 39.235 36.5258 39.235 36.5258 39.235C36.5258 39.235 36.5258 39.235 36.5258 39.235C36.5258 39.235 36.5258 39.235 36.5258 39.235H36.5258H36.5258H36.5258H36.5258H36.5258C36.5258 39.235 36.5258 39.235 36.5258 39.235C36.5258 39.235 36.5258 39.235 36.5258 39.235C36.5258 39.235 36.5258 39.235 36.5258 39.235C36.5258 39.235 36.5258 39.235 36.5258 39.235C36.5258 39.235 36.5258 39.235 36.5258 39.235C36.5258 39.235 36.5258 39.235 36.5258 39.235C36.5258 39.235 36.5258 39.235 36.5258 39.235C36.5258 39.235 36.5258 39.235 36.5258 39.235C36.5258 39.235 36.5258 39.235 36.5258 39.235C36.5258 39.235 36.5258 39.235 36.5258 39.235C36.5258 39.235 36.5258 39.235 36.5258 39.235C36.5258 39.235 36.5258 39.235 36.5257 39.235C36.5257 39.235 36.5257 39.235 36.5257 39.235C36.5257 39.235 36.5257 39.235 36.5257 39.235C36.5257 39.235 36.5257 39.235 36.5257 39.235C36.5257 39.235 36.5257 39.235 36.5257 39.235C36.5257 39.235 36.5257 39.235 36.5257 39.235C36.5257 39.235 36.5257 39.235 36.5257 39.235C36.5257 39.235 36.5257 39.235 36.5257 39.235C36.5257 39.235 36.5257 39.235 36.5257 39.235C36.5257 39.235 36.5257 39.235 36.5257 39.235C36.5257 39.235 36.5257 39.235 36.5257 39.235C36.5257 39.235 36.5257 39.235 36.5257 39.235C36.5257 39.235 36.5257 39.235 36.5257 39.235C36.5257 39.235 36.5257 39.235 36.5257 39.235C36.5257 39.235 36.5257 39.235 36.5257 39.235C36.5257 39.235 36.5257 39.235 36.5257 39.235C36.5257 39.235 36.5257 39.235 36.5257 39.235C36.5257 39.235 36.5257 39.235 36.5257 39.235C36.5257 39.235 36.5257 39.235 36.5257 39.235C36.5257 39.235 36.5257 39.235 36.5257 39.235C36.5257 39.235 36.5257 39.235 36.5257 39.235H36.5257H36.5257H36.5257H36.5257C36.5257 39.235 36.5257 39.235 36.5257 39.235C36.5257 39.235 36.5257 39.235 36.5257 39.235C36.5257 39.235 36.5257 39.235 36.5257 39.235C36.5257 39.235 36.5257 39.235 36.5257 39.235C36.5257 39.235 36.5257 39.235 36.5257 39.235H36.5257H36.5257H36.5257C36.5257 39.235 36.5257 39.235 36.5257 39.235C36.5257 39.235 36.5257 39.235 36.5257 39.235C36.5257 39.235 36.5257 39.235 36.5257 39.235C36.5257 39.235 36.5257 39.235 36.5257 39.235H36.5257C36.5257 39.235 36.5257 39.235 36.5257 39.235C36.5257 39.235 36.5257 39.235 36.5257 39.235C36.5257 39.235 36.5257 39.235 36.5257 39.235C36.5257 39.235 36.5257 39.235 36.5257 39.235H36.5257C36.5257 39.235 36.5257 39.235 36.5257 39.235C36.5257 39.235 36.5257 39.235 36.5257 39.235C36.5257 39.235 36.5257 39.235 36.5257 39.235H36.5257C36.5257 39.235 36.5257 39.235 36.5257 39.235C36.5257 39.235 36.5257 39.235 36.5257 39.235H36.5257C36.5257 39.235 36.5257 39.235 36.5257 39.235C36.5257 39.235 36.5257 39.235 36.5257 39.235V43.235C36.5257 43.235 36.5257 43.235 36.5257 43.235C36.5257 43.235 36.5257 43.235 36.5257 43.235H36.5257C36.5257 43.235 36.5257 43.235 36.5257 43.235C36.5257 43.235 36.5257 43.235 36.5257 43.235H36.5257C36.5257 43.235 36.5257 43.235 36.5257 43.235C36.5257 43.235 36.5257 43.235 36.5257 43.235C36.5257 43.235 36.5257 43.235 36.5257 43.235H36.5257C36.5257 43.235 36.5257 43.235 36.5257 43.235C36.5257 43.235 36.5257 43.235 36.5257 43.235C36.5257 43.235 36.5257 43.235 36.5257 43.235C36.5257 43.235 36.5257 43.235 36.5257 43.235H36.5257C36.5257 43.235 36.5257 43.235 36.5257 43.235C36.5257 43.235 36.5257 43.235 36.5257 43.235C36.5257 43.235 36.5257 43.235 36.5257 43.235C36.5257 43.235 36.5257 43.235 36.5257 43.235H36.5257H36.5257H36.5257C36.5257 43.235 36.5257 43.235 36.5257 43.235C36.5257 43.235 36.5257 43.235 36.5257 43.235C36.5257 43.235 36.5257 43.235 36.5257 43.235C36.5257 43.235 36.5257 43.235 36.5257 43.235C36.5257 43.235 36.5257 43.235 36.5257 43.235H36.5257H36.5257H36.5257H36.5257C36.5257 43.235 36.5257 43.235 36.5257 43.235C36.5257 43.235 36.5257 43.235 36.5257 43.235C36.5257 43.235 36.5257 43.235 36.5257 43.235C36.5257 43.235 36.5257 43.235 36.5257 43.235C36.5257 43.235 36.5257 43.235 36.5257 43.235C36.5257 43.235 36.5257 43.235 36.5257 43.235C36.5257 43.235 36.5257 43.235 36.5257 43.235C36.5257 43.235 36.5257 43.235 36.5257 43.235C36.5257 43.235 36.5257 43.235 36.5257 43.235C36.5257 43.235 36.5257 43.235 36.5257 43.235C36.5257 43.235 36.5257 43.235 36.5257 43.235C36.5257 43.235 36.5257 43.235 36.5257 43.235C36.5257 43.235 36.5257 43.235 36.5257 43.235C36.5257 43.235 36.5257 43.235 36.5257 43.235C36.5257 43.235 36.5257 43.235 36.5257 43.235C36.5257 43.235 36.5257 43.235 36.5257 43.235C36.5257 43.235 36.5257 43.235 36.5257 43.235C36.5257 43.235 36.5257 43.235 36.5257 43.235C36.5257 43.235 36.5257 43.235 36.5257 43.235C36.5257 43.235 36.5257 43.235 36.5257 43.235C36.5258 43.235 36.5258 43.235 36.5258 43.235C36.5258 43.235 36.5258 43.235 36.5258 43.235C36.5258 43.235 36.5258 43.235 36.5258 43.235C36.5258 43.235 36.5258 43.235 36.5258 43.235C36.5258 43.235 36.5258 43.235 36.5258 43.235C36.5258 43.235 36.5258 43.235 36.5258 43.235C36.5258 43.235 36.5258 43.235 36.5258 43.235C36.5258 43.235 36.5258 43.235 36.5258 43.235C36.5258 43.235 36.5258 43.235 36.5258 43.235C36.5258 43.235 36.5258 43.235 36.5258 43.235C36.5258 43.235 36.5258 43.235 36.5258 43.235C36.5258 43.235 36.5258 43.235 36.5258 43.235H36.5258H36.5258H36.5258H36.5258H36.5258C36.5258 43.235 36.5258 43.235 36.5258 43.235C36.5258 43.235 36.5258 43.235 36.5258 43.235C36.5258 43.235 36.5258 43.235 36.5258 43.235C36.5258 43.235 36.5258 43.235 36.5258 43.235C36.5258 43.235 36.5258 43.235 36.5258 43.235C36.5258 43.235 36.5258 43.235 36.5258 43.235C36.5258 43.235 36.5258 43.235 36.5258 43.235C36.5258 43.235 36.5258 43.235 36.5258 43.235H36.5258H36.5258H36.5258C36.5258 43.235 36.5258 43.235 36.5258 43.235C36.5258 43.235 36.5258 43.235 36.5258 43.235C36.5258 43.235 36.5258 43.235 36.5258 43.235C36.5258 43.235 36.5258 43.235 36.5258 43.235C36.5258 43.235 36.5258 43.235 36.5258 43.235C36.5258 43.235 36.5258 43.235 36.5258 43.235H36.5258H36.5258H36.5258C36.5258 43.235 36.5258 43.235 36.5258 43.235C36.5258 43.235 36.5258 43.235 36.5258 43.235C36.5258 43.235 36.5258 43.235 36.5258 43.235C36.5258 43.235 36.5258 43.235 36.5258 43.235C36.5258 43.235 36.5258 43.235 36.5258 43.235H36.5258H36.5258H36.5258C36.5258 43.235 36.5258 43.235 36.5258 43.235C36.5258 43.235 36.5258 43.235 36.5258 43.235C36.5258 43.235 36.5258 43.235 36.5258 43.235C36.5258 43.235 36.5258 43.235 36.5258 43.235C36.5258 43.235 36.5258 43.235 36.5258 43.235H36.5258H36.5258C36.5259 43.235 36.5259 43.235 36.5259 43.235C36.5259 43.235 36.5259 43.235 36.5259 43.235C36.5259 43.235 36.5259 43.235 36.5259 43.235C36.5259 43.235 36.5259 43.235 36.5259 43.235C36.5259 43.235 36.5259 43.235 36.5259 43.235H36.5259H36.5259C36.5259 43.235 36.5259 43.235 36.5259 43.235C36.5259 43.235 36.5259 43.235 36.5259 43.235C36.5259 43.235 36.5259 43.235 36.5259 43.235C36.5259 43.235 36.5259 43.235 36.5259 43.235H36.5259H36.5259H36.5259C36.5259 43.235 36.5259 43.235 36.5259 43.235C36.5259 43.235 36.5259 43.235 36.5259 43.235C36.5259 43.235 36.5259 43.235 36.5259 43.235C36.5259 43.235 36.5259 43.235 36.5259 43.235H36.5259H36.5259C36.5259 43.235 36.5259 43.235 36.5259 43.235C36.5259 43.235 36.5259 43.235 36.5259 43.235C36.5259 43.235 36.5259 43.235 36.5259 43.235C36.5259 43.235 36.5259 43.235 36.5259 43.235H36.5259H36.5259C36.5259 43.235 36.5259 43.235 36.5259 43.235C36.5259 43.235 36.5259 43.235 36.5259 43.235C36.5259 43.235 36.5259 43.235 36.5259 43.235C36.5259 43.235 36.5259 43.235 36.5259 43.235C36.5259 43.235 36.5259 43.235 36.5259 43.235H36.5259H36.5259C36.5259 43.235 36.5259 43.235 36.5259 43.235C36.5259 43.235 36.5259 43.235 36.5259 43.235C36.5259 43.235 36.5259 43.235 36.5259 43.235C36.5259 43.235 36.5259 43.235 36.5259 43.235H36.5259H36.5259C36.5259 43.235 36.5259 43.235 36.5259 43.235C36.5259 43.235 36.5259 43.235 36.5259 43.235C36.5259 43.235 36.5259 43.235 36.5259 43.235C36.5259 43.235 36.5259 43.235 36.5259 43.235C36.5259 43.235 36.5259 43.235 36.5259 43.235H36.5259H36.5259C36.5259 43.235 36.5259 43.235 36.5259 43.235C36.5259 43.235 36.5259 43.235 36.5259 43.235C36.5259 43.235 36.5259 43.235 36.5259 43.235C36.5259 43.235 36.5259 43.235 36.5259 43.235C36.5259 43.235 36.5259 43.235 36.5259 43.235H36.5259H36.5259C36.526 43.235 36.526 43.235 36.526 43.235C36.526 43.235 36.526 43.235 36.526 43.235C36.526 43.235 36.526 43.235 36.526 43.235C36.526 43.235 36.526 43.235 36.526 43.235C36.526 43.235 36.526 43.235 36.526 43.235H36.526H36.526C36.526 43.235 36.526 43.235 36.526 43.235C36.526 43.235 36.526 43.235 36.526 43.235C36.526 43.235 36.526 43.235 36.526 43.235C36.526 43.235 36.526 43.235 36.526 43.235C36.526 43.235 36.526 43.235 36.526 43.235H36.526H36.526H36.526C36.526 43.235 36.526 43.235 36.526 43.235C36.526 43.235 36.526 43.235 36.526 43.235C36.526 43.235 36.526 43.235 36.526 43.235C36.526 43.235 36.526 43.235 36.526 43.235C36.526 43.235 36.526 43.235 36.526 43.235C36.526 43.235 36.526 43.235 36.526 43.235H36.526H36.526H36.526C36.526 43.235 36.526 43.235 36.526 43.235C36.526 43.235 36.526 43.235 36.526 43.235C36.526 43.235 36.526 43.235 36.526 43.235C36.526 43.235 36.526 43.235 36.526 43.235C36.526 43.235 36.526 43.235 36.526 43.235C36.526 43.235 36.526 43.235 36.526 43.235C36.526 43.235 36.526 43.235 36.526 43.235H36.526H36.526H36.526H36.526C36.526 43.235 36.526 43.235 36.526 43.235C36.526 43.235 36.526 43.235 36.526 43.235C36.526 43.235 36.526 43.235 36.526 43.235C36.526 43.235 36.526 43.235 36.526 43.235C36.526 43.235 36.526 43.235 36.526 43.235C36.526 43.235 36.526 43.235 36.526 43.235C36.526 43.235 36.526 43.235 36.526 43.235C36.526 43.235 36.526 43.235 36.526 43.235C36.526 43.235 36.526 43.235 36.526 43.235C36.526 43.235 36.526 43.235 36.526 43.235C36.526 43.235 36.526 43.235 36.526 43.235C36.526 43.235 36.526 43.235 36.526 43.235H36.526H36.526H36.526H36.526H36.526H36.5261H36.5261H36.5261H36.5261H36.5261H36.5261H36.5261H36.5261H36.5261H36.5261H36.5261H36.5261H36.5261C36.5261 43.235 36.5261 43.235 36.5261 43.235C36.5261 43.235 36.5261 43.235 36.5261 43.235C36.5261 43.235 36.5261 43.235 36.5261 43.235C36.5261 43.235 36.5261 43.235 36.5261 43.235C36.5261 43.235 36.5261 43.235 36.5261 43.235C36.5261 43.235 36.5261 43.235 36.5261 43.235C36.5261 43.235 36.5261 43.235 36.5261 43.235C36.5261 43.235 36.5261 43.235 36.5261 43.235C36.5261 43.235 36.5261 43.235 36.5261 43.235C36.5261 43.235 36.5261 43.235 36.5261 43.235H36.5261H36.5261H36.5261C36.5261 43.235 36.5261 43.235 36.5261 43.235C36.5261 43.235 36.5261 43.235 36.5261 43.235C36.5261 43.235 36.5261 43.235 36.5261 43.235C36.5261 43.235 36.5261 43.235 36.5261 43.235C36.5261 43.235 36.5261 43.235 36.5261 43.235H36.5261H36.5261C36.5261 43.235 36.5261 43.235 36.5261 43.235C36.5261 43.235 36.5261 43.235 36.5261 43.235C36.5261 43.235 36.5261 43.235 36.5261 43.235C36.5261 43.235 36.5261 43.235 36.5261 43.235H36.5261H36.5261C36.5261 43.235 36.5261 43.235 36.5261 43.235C36.5261 43.235 36.5261 43.235 36.5261 43.235C36.5261 43.235 36.5261 43.235 36.5261 43.235H36.5261C36.5261 43.235 36.5261 43.235 36.5261 43.235C36.5261 43.235 36.5261 43.235 36.5261 43.235C36.5261 43.235 36.5261 43.235 36.5261 43.235H36.5261C36.5261 43.235 36.5261 43.235 36.5261 43.235C36.5261 43.235 36.5261 43.235 36.5261 43.235H36.5261C36.5261 43.235 36.5261 43.235 36.5261 43.235V39.235ZM36.5257 39.235H15.1364V43.235H36.5257V39.235ZM16.6222 42.5738C17.4347 41.6721 17.9486 40.4791 17.9486 39.1584H13.9486C13.9486 39.4172 13.8515 39.6732 13.6506 39.8962L16.6222 42.5738ZM17.9486 39.1584V37.0828H13.9486V39.1584H17.9486ZM15.9486 39.0828H38.7559V35.0828H15.9486V39.0828ZM36.7559 37.0828V39.1585H40.7559V37.0828H36.7559Z" fill="#009DE1" mask="url(#path-2-inside-1_185_1281)"/>
<mask id="path-4-inside-2_185_1281" fill="white">
<path d="M30.9205 15.1367H12.519C12.1611 15.1367 11.8711 15.4068 11.8711 15.74V39.6688C11.8711 40.0019 12.1611 40.2721 12.519 40.2721C12.8769 40.2721 13.167 40.0019 13.167 39.6688V16.3433H30.2726V35.1311C30.2726 35.4643 30.5626 35.7344 30.9205 35.7344C31.2784 35.7344 31.5685 35.4643 31.5685 35.1311V15.74C31.5685 15.4068 31.2784 15.1367 30.9205 15.1367Z"/>
</mask>
<path d="M30.9205 15.1367H12.519C12.1611 15.1367 11.8711 15.4068 11.8711 15.74V39.6688C11.8711 40.0019 12.1611 40.2721 12.519 40.2721C12.8769 40.2721 13.167 40.0019 13.167 39.6688V16.3433H30.2726V35.1311C30.2726 35.4643 30.5626 35.7344 30.9205 35.7344C31.2784 35.7344 31.5685 35.4643 31.5685 35.1311V15.74C31.5685 15.4068 31.2784 15.1367 30.9205 15.1367Z" fill="#009DE1"/>
<path d="M13.167 16.3433V14.3433H11.167V16.3433H13.167ZM30.2726 16.3433H32.2726V14.3433H30.2726V16.3433ZM31.5685 15.74H29.5685H31.5685ZM30.9205 13.1367H12.519V17.1367H30.9205V13.1367ZM12.519 13.1367C11.1933 13.1367 9.87109 14.1704 9.87109 15.74H13.8711C13.8711 16.6433 13.129 17.1367 12.519 17.1367V13.1367ZM9.87109 15.74V39.6688H13.8711V15.74H9.87109ZM9.87109 39.6688C9.87109 41.2384 11.1933 42.2721 12.519 42.2721V38.2721C13.129 38.2721 13.8711 38.7655 13.8711 39.6688H9.87109ZM12.519 42.2721C13.8448 42.2721 15.167 41.2384 15.167 39.6688H11.167C11.167 38.7655 11.9091 38.2721 12.519 38.2721V42.2721ZM15.167 39.6688V16.3433H11.167V39.6688H15.167ZM13.167 18.3433H30.2726V14.3433H13.167V18.3433ZM28.2726 16.3433V35.1311H32.2726V16.3433H28.2726ZM28.2726 35.1311C28.2726 36.7008 29.5948 37.7344 30.9205 37.7344V33.7344C31.5305 33.7344 32.2726 34.2278 32.2726 35.1311H28.2726ZM30.9205 37.7344C32.2463 37.7344 33.5685 36.7008 33.5685 35.1311H29.5685C29.5685 34.2278 30.3106 33.7344 30.9205 33.7344V37.7344ZM33.5685 35.1311V15.74H29.5685V35.1311H33.5685ZM33.5685 15.74C33.5685 14.1704 32.2463 13.1367 30.9205 13.1367V17.1367C30.3106 17.1367 29.5685 16.6433 29.5685 15.74H33.5685Z" fill="#009DE1" mask="url(#path-4-inside-2_185_1281)"/>
<path d="M22.2629 26.5843C22.2731 26.5825 22.2832 26.5808 22.2934 26.579L22.2942 26.5788C22.6049 26.5243 22.8786 26.4276 23.1142 26.2976L22.9966 26.101L23.1143 26.2976C23.1377 26.2847 23.1608 26.2714 23.1834 26.2579L23.1835 26.2578C23.3981 26.1294 23.5761 25.9554 23.7161 25.7281C23.7162 25.728 23.7162 25.7279 23.7163 25.7278C23.7292 25.7069 23.7417 25.6855 23.754 25.6637L22.2629 26.5843ZM22.2629 26.5843L22.2266 26.3781L22.2627 26.5843C21.922 26.6425 21.5713 26.6722 21.2209 26.6722C21.2209 26.6722 21.2208 26.6722 21.2208 26.6722H20.9578H20.9576C20.8445 26.6722 20.7295 26.6692 20.616 26.6634C20.6125 26.6632 20.6089 26.663 20.6054 26.6628L20.6035 26.6627C20.5081 26.6579 20.4165 26.6508 20.3311 26.6421L22.2629 26.5843Z" fill="#009DE1" stroke="#009DE1" stroke-width="2"/>
<mask id="path-7-inside-3_185_1281" fill="white">
<path d="M27.347 22.0515C26.9216 21.3719 26.3613 20.8324 25.6815 20.4481C25.0237 20.0761 24.2761 19.8252 23.4595 19.7019C22.6909 19.5862 21.916 19.5276 21.1566 19.5276C20.4391 19.5276 19.7081 19.5581 18.9838 19.6182C18.2585 19.6782 17.582 19.7634 16.9731 19.8714C16.6674 19.9255 16.4463 20.1743 16.4463 20.4641V34.0457C16.4463 34.3788 16.7363 34.649 17.0942 34.649H19.9779C20.3358 34.649 20.6259 34.3788 20.6259 34.0457V29.9863C20.6812 29.9892 20.7365 29.9916 20.7919 29.9938C20.9636 30.0006 21.1359 30.0042 21.3041 30.0042H21.6407C22.4253 30.0042 23.1956 29.9077 23.93 29.7175C24.6887 29.5208 25.3765 29.202 25.9741 28.7701C26.5809 28.3316 27.0739 27.7682 27.439 27.0957C27.8066 26.4187 27.9928 25.6052 27.9928 24.6777C27.9929 23.6209 27.7756 22.7374 27.347 22.0515ZM26.2825 26.5516C26.0047 27.0631 25.6336 27.4889 25.1795 27.8171C24.7156 28.1523 24.1781 28.4007 23.5826 28.5552C22.9613 28.716 22.308 28.7977 21.6407 28.7977H21.3041C21.1545 28.7977 21.0009 28.7946 20.8463 28.7884C20.689 28.7823 20.5327 28.7731 20.3806 28.7607C20.191 28.7456 20.1225 28.7344 20.106 28.7313C19.9158 28.6954 19.7179 28.7412 19.5676 28.8558C19.4172 28.9703 19.33 29.1417 19.33 29.3227V33.4426H17.7422V20.9721C18.1662 20.9106 18.6205 20.8597 19.0987 20.82C19.785 20.7631 20.4773 20.7342 21.1565 20.7342C21.8469 20.7342 22.5521 20.7877 23.2524 20.893C23.9032 20.9912 24.4942 21.1885 25.0089 21.4795C25.5089 21.7622 25.9073 22.148 26.227 22.6587C26.5387 23.1576 26.6968 23.8368 26.6968 24.6778C26.697 25.4145 26.5575 26.0449 26.2825 26.5516Z"/>
</mask>
<path d="M27.347 22.0515C26.9216 21.3719 26.3613 20.8324 25.6815 20.4481C25.0237 20.0761 24.2761 19.8252 23.4595 19.7019C22.6909 19.5862 21.916 19.5276 21.1566 19.5276C20.4391 19.5276 19.7081 19.5581 18.9838 19.6182C18.2585 19.6782 17.582 19.7634 16.9731 19.8714C16.6674 19.9255 16.4463 20.1743 16.4463 20.4641V34.0457C16.4463 34.3788 16.7363 34.649 17.0942 34.649H19.9779C20.3358 34.649 20.6259 34.3788 20.6259 34.0457V29.9863C20.6812 29.9892 20.7365 29.9916 20.7919 29.9938C20.9636 30.0006 21.1359 30.0042 21.3041 30.0042H21.6407C22.4253 30.0042 23.1956 29.9077 23.93 29.7175C24.6887 29.5208 25.3765 29.202 25.9741 28.7701C26.5809 28.3316 27.0739 27.7682 27.439 27.0957C27.8066 26.4187 27.9928 25.6052 27.9928 24.6777C27.9929 23.6209 27.7756 22.7374 27.347 22.0515ZM26.2825 26.5516C26.0047 27.0631 25.6336 27.4889 25.1795 27.8171C24.7156 28.1523 24.1781 28.4007 23.5826 28.5552C22.9613 28.716 22.308 28.7977 21.6407 28.7977H21.3041C21.1545 28.7977 21.0009 28.7946 20.8463 28.7884C20.689 28.7823 20.5327 28.7731 20.3806 28.7607C20.191 28.7456 20.1225 28.7344 20.106 28.7313C19.9158 28.6954 19.7179 28.7412 19.5676 28.8558C19.4172 28.9703 19.33 29.1417 19.33 29.3227V33.4426H17.7422V20.9721C18.1662 20.9106 18.6205 20.8597 19.0987 20.82C19.785 20.7631 20.4773 20.7342 21.1565 20.7342C21.8469 20.7342 22.5521 20.7877 23.2524 20.893C23.9032 20.9912 24.4942 21.1885 25.0089 21.4795C25.5089 21.7622 25.9073 22.148 26.227 22.6587C26.5387 23.1576 26.6968 23.8368 26.6968 24.6778C26.697 25.4145 26.5575 26.0449 26.2825 26.5516Z" fill="#009DE1"/>
<path d="M27.347 22.0515L29.0431 20.9917L29.0424 20.9906L27.347 22.0515ZM25.6815 20.4481L24.6971 22.1891L24.6972 22.1891L25.6815 20.4481ZM23.4595 19.7019L23.7579 17.7243L23.7572 17.7242L23.4595 19.7019ZM18.9838 19.6182L19.1489 21.6113L19.1491 21.6113L18.9838 19.6182ZM16.9731 19.8714L17.322 21.8407L17.3222 21.8406L16.9731 19.8714ZM20.6259 29.9863L20.7313 27.9891L18.6259 27.8779V29.9863H20.6259ZM20.7919 29.9938L20.8718 27.9954L20.8704 27.9953L20.7919 29.9938ZM23.93 29.7175L24.4315 31.6536L24.4318 31.6535L23.93 29.7175ZM25.9741 28.7701L27.1456 30.3911L27.1456 30.3911L25.9741 28.7701ZM27.439 27.0957L29.1966 28.0502L29.1967 28.0499L27.439 27.0957ZM27.9928 24.6777L25.9928 24.6775V24.6777H27.9928ZM26.2825 26.5516L28.04 27.5061L28.0403 27.5057L26.2825 26.5516ZM25.1795 27.8171L24.008 26.1961L24.008 26.1961L25.1795 27.8171ZM23.5826 28.5552L24.084 30.4913L24.0846 30.4911L23.5826 28.5552ZM20.8463 28.7884L20.9262 26.79L20.9231 26.7899L20.8463 28.7884ZM20.3806 28.7607L20.5427 26.7673L20.5399 26.7671L20.3806 28.7607ZM20.106 28.7313L19.7347 30.6966L19.7415 30.6978L20.106 28.7313ZM19.33 33.4426V35.4426H21.33V33.4426H19.33ZM17.7422 33.4426H15.7422V35.4426H17.7422V33.4426ZM17.7422 20.9721L17.4549 18.9929L15.7422 19.2414V20.9721H17.7422ZM19.0987 20.82L18.9334 18.8268L18.9334 18.8268L19.0987 20.82ZM23.2524 20.893L23.5509 18.9154L23.5498 18.9152L23.2524 20.893ZM25.0089 21.4795L25.9933 19.7385L25.9932 19.7385L25.0089 21.4795ZM26.227 22.6587L27.9231 21.5989L27.9222 21.5974L26.227 22.6587ZM26.6968 24.6778H24.6968V24.6782L26.6968 24.6778ZM29.0424 20.9906C28.4452 20.0364 27.6435 19.2598 26.6658 18.7071L24.6972 22.1891C25.0791 22.405 25.398 22.7074 25.6516 23.1125L29.0424 20.9906ZM26.6659 18.7071C25.7767 18.2044 24.7932 17.8805 23.7579 17.7243L23.161 21.6795C23.7591 21.7698 24.2706 21.9479 24.6971 22.1891L26.6659 18.7071ZM23.7572 17.7242C22.8923 17.594 22.0179 17.5276 21.1566 17.5276V21.5276C21.8141 21.5276 22.4894 21.5784 23.1618 21.6796L23.7572 17.7242ZM21.1566 17.5276C20.3832 17.5276 19.597 17.5604 18.8185 17.625L19.1491 21.6113C19.8192 21.5557 20.4951 21.5276 21.1566 21.5276V17.5276ZM18.8188 17.625C18.0422 17.6893 17.3033 17.7816 16.624 17.9021L17.3222 21.8406C17.8607 21.7452 18.4748 21.6671 19.1489 21.6113L18.8188 17.625ZM16.6242 17.902C15.4642 18.1075 14.4463 19.1055 14.4463 20.4641H18.4463C18.4463 21.2431 17.8707 21.7435 17.322 21.8407L16.6242 17.902ZM14.4463 20.4641V34.0457H18.4463V20.4641H14.4463ZM14.4463 34.0457C14.4463 35.6153 15.7685 36.649 17.0942 36.649V32.649C17.7042 32.649 18.4463 33.1424 18.4463 34.0457H14.4463ZM17.0942 36.649H19.9779V32.649H17.0942V36.649ZM19.9779 36.649C21.3037 36.649 22.6259 35.6153 22.6259 34.0457H18.6259C18.6259 33.1424 19.3679 32.649 19.9779 32.649V36.649ZM22.6259 34.0457V29.9863H18.6259V34.0457H22.6259ZM20.5204 31.9835C20.5883 31.9871 20.6537 31.9899 20.7135 31.9922L20.8704 27.9953C20.8194 27.9933 20.774 27.9913 20.7313 27.9891L20.5204 31.9835ZM20.7121 31.9922C20.9093 32.0001 21.1083 32.0042 21.3041 32.0042V28.0042C21.1635 28.0042 21.0179 28.0012 20.8718 27.9954L20.7121 31.9922ZM21.3041 32.0042H21.6407V28.0042H21.3041V32.0042ZM21.6407 32.0042C22.5888 32.0042 23.5278 31.8876 24.4315 31.6536L23.4285 27.7814C22.8634 27.9277 22.2619 28.0042 21.6407 28.0042V32.0042ZM24.4318 31.6535C25.4162 31.3983 26.3339 30.9777 27.1456 30.3911L24.8026 27.1491C24.4191 27.4263 23.9613 27.6432 23.4281 27.7814L24.4318 31.6535ZM27.1456 30.3911C28.0006 29.7732 28.6916 28.98 29.1966 28.0502L25.6815 26.1413C25.4561 26.5564 25.1612 26.89 24.8026 27.1492L27.1456 30.3911ZM29.1967 28.0499C29.7528 27.0256 29.9928 25.8705 29.9928 24.6777H25.9928C25.9928 25.3398 25.8603 25.8118 25.6813 26.1415L29.1967 28.0499ZM29.9928 24.6778C29.9929 23.3588 29.7225 22.0791 29.0431 20.9917L25.6509 23.1114C25.8286 23.3958 25.9928 23.883 25.9928 24.6775L29.9928 24.6778ZM24.525 25.597C24.3844 25.856 24.2097 26.0503 24.008 26.1961L26.351 29.4381C27.0574 28.9275 27.625 28.2703 28.04 27.5061L24.525 25.597ZM24.008 26.1961C23.7605 26.375 23.4536 26.5225 23.0806 26.6192L24.0846 30.4911C24.9027 30.279 25.6707 29.9297 26.351 29.438L24.008 26.1961ZM23.0812 26.619C22.6299 26.7359 22.1454 26.7977 21.6407 26.7977V30.7977C22.4706 30.7977 23.2928 30.6962 24.084 30.4913L23.0812 26.619ZM21.6407 26.7977H21.3041V30.7977H21.6407V26.7977ZM21.3041 26.7977C21.1821 26.7977 21.0551 26.7951 20.9262 26.79L20.7664 30.7868C20.9467 30.794 21.1269 30.7977 21.3041 30.7977V26.7977ZM20.9231 26.7899C20.7928 26.7849 20.665 26.7773 20.5427 26.7673L20.2185 30.7542C20.4004 30.7689 20.5851 30.7798 20.7695 30.7869L20.9231 26.7899ZM20.5399 26.7671C20.4641 26.761 20.4256 26.7568 20.4137 26.7554C20.4004 26.7538 20.4243 26.7562 20.4706 26.7648L19.7415 30.6978C19.8569 30.7192 20.0039 30.737 20.2213 30.7544L20.5399 26.7671ZM20.4773 26.7661C19.7443 26.6276 18.9679 26.7982 18.3553 27.265L20.7798 30.4465C20.4678 30.6843 20.0873 30.7632 19.7347 30.6965L20.4773 26.7661ZM18.3553 27.265C17.7348 27.7379 17.33 28.4854 17.33 29.3227H21.33C21.33 29.7981 21.0997 30.2028 20.7798 30.4465L18.3553 27.265ZM17.33 29.3227V33.4426H21.33V29.3227H17.33ZM19.33 31.4426H17.7422V35.4426H19.33V31.4426ZM19.7422 33.4426V20.9721H15.7422V33.4426H19.7422ZM18.0294 22.9514C18.4084 22.8964 18.8217 22.8499 19.2641 22.8131L18.9334 18.8268C18.4194 18.8695 17.9241 18.9247 17.4549 18.9929L18.0294 22.9514ZM19.2641 22.8131C19.8961 22.7607 20.5333 22.7342 21.1565 22.7342V18.7342C20.4213 18.7342 19.6739 18.7654 18.9334 18.8268L19.2641 22.8131ZM21.1565 22.7342C21.7447 22.7342 22.3505 22.7798 22.955 22.8707L23.5498 18.9152C22.7537 18.7955 21.9491 18.7342 21.1565 18.7342V22.7342ZM22.9539 22.8706C23.3909 22.9365 23.745 23.0624 24.0246 23.2205L25.9932 19.7385C25.2434 19.3146 24.4155 19.0459 23.5509 18.9154L22.9539 22.8706ZM24.0245 23.2204C24.22 23.331 24.3796 23.4768 24.5318 23.72L27.9222 21.5974C27.435 20.8192 26.7978 20.1934 25.9933 19.7385L24.0245 23.2204ZM24.5309 23.7185C24.5762 23.7911 24.6968 24.0589 24.6968 24.6778H28.6968C28.6968 23.6147 28.5012 22.5241 27.9231 21.5989L24.5309 23.7185ZM24.6968 24.6782C24.6969 25.1718 24.6026 25.454 24.5248 25.5974L28.0403 27.5057C28.5125 26.6358 28.697 25.6572 28.6968 24.6774L24.6968 24.6782Z" fill="#009DE1" mask="url(#path-7-inside-3_185_1281)"/>
</svg>
