<svg width="50" height="51" viewBox="0 0 50 51" fill="none" xmlns="http://www.w3.org/2000/svg">
<path d="M39.0553 37H10.9442C10.2665 37 9.61644 36.7308 9.13718 36.2515C8.65792 35.7722 8.38867 35.1222 8.38867 34.4444V16.5556C8.38867 15.8778 8.65792 15.2278 9.13718 14.7485C9.61644 14.2692 10.2665 14 10.9442 14H39.0553C39.7331 14 40.3831 14.2692 40.8624 14.7485C41.3416 15.2278 41.6109 15.8778 41.6109 16.5556V34.4444C41.6109 35.1222 41.3416 35.7722 40.8624 36.2515C40.3831 36.7308 39.7331 37 39.0553 37Z" stroke="#009DE1" stroke-width="2" stroke-linecap="round" stroke-linejoin="round"/>
<path d="M28.8329 29.3333H35.2218M28.8329 21.6666H35.2218M18.6107 21.6666C19.1141 21.6666 19.6125 21.7657 20.0776 21.9584C20.5427 22.151 20.9653 22.4334 21.3213 22.7893C21.6772 23.1453 21.9596 23.5679 22.1522 24.033C22.3449 24.498 22.444 24.9965 22.444 25.4999C22.444 26.0033 22.3449 26.5018 22.1522 26.9669C21.9596 27.432 21.6772 27.8545 21.3213 28.2105C20.9653 28.5665 20.5427 28.8488 20.0776 29.0415C19.6125 29.2341 19.1141 29.3333 18.6107 29.3333C17.594 29.3333 16.619 28.9294 15.9001 28.2105C15.1812 27.4916 14.7773 26.5166 14.7773 25.4999C14.7773 24.4833 15.1812 23.5082 15.9001 22.7893C16.619 22.0705 17.594 21.6666 18.6107 21.6666Z" stroke="#009DE1" stroke-width="2" stroke-linecap="round" stroke-linejoin="round"/>
</svg>
