<svg width="50" height="50" viewBox="0 0 50 50" fill="none" xmlns="http://www.w3.org/2000/svg">
<path d="M39.6011 13.1423L32.783 5.45C32.6562 5.30718 32.5058 5.19393 32.3403 5.11671C32.1747 5.0395 31.9973 4.99984 31.8182 5H18.1818C17.4585 5 16.7648 5.32418 16.2533 5.90121C15.7419 6.47825 15.4545 7.26087 15.4545 8.07692V11.1538H12.7273C12.004 11.1538 11.3103 11.478 10.7988 12.0551C10.2873 12.6321 10 13.4147 10 14.2308V41.9231C10 42.7391 10.2873 43.5218 10.7988 44.0988C11.3103 44.6758 12.004 45 12.7273 45H31.8182C32.5415 45 33.2352 44.6758 33.7467 44.0988C34.2581 43.5218 34.5455 42.7391 34.5455 41.9231V38.8462H37.2727C37.996 38.8462 38.6897 38.522 39.2012 37.9449C39.7127 37.3679 40 36.5853 40 35.7692V14.2308C40.0001 14.0287 39.965 13.8285 39.8966 13.6418C39.8281 13.455 39.7277 13.2853 39.6011 13.1423ZM31.8182 41.9231H12.7273V14.2308H25.7994L31.8182 21.0212V41.9231ZM37.2727 35.7692H34.5455V20.3846C34.5456 20.1825 34.5104 19.9824 34.442 19.7956C34.3736 19.6089 34.2732 19.4391 34.1466 19.2962L27.3284 11.6038C27.2017 11.461 27.0512 11.3478 26.8857 11.2706C26.7202 11.1933 26.5428 11.1537 26.3636 11.1538H18.1818V8.07692H31.254L37.2727 14.8673V35.7692ZM27.7273 29.6154C27.7273 30.0234 27.5836 30.4147 27.3279 30.7032C27.0721 30.9918 26.7253 31.1538 26.3636 31.1538H18.1818C17.8202 31.1538 17.4733 30.9918 17.2176 30.7032C16.9619 30.4147 16.8182 30.0234 16.8182 29.6154C16.8182 29.2074 16.9619 28.816 17.2176 28.5275C17.4733 28.239 17.8202 28.0769 18.1818 28.0769H26.3636C26.7253 28.0769 27.0721 28.239 27.3279 28.5275C27.5836 28.816 27.7273 29.2074 27.7273 29.6154ZM27.7273 35.7692C27.7273 36.1773 27.5836 36.5686 27.3279 36.8571C27.0721 37.1456 26.7253 37.3077 26.3636 37.3077H18.1818C17.8202 37.3077 17.4733 37.1456 17.2176 36.8571C16.9619 36.5686 16.8182 36.1773 16.8182 35.7692C16.8182 35.3612 16.9619 34.9699 17.2176 34.6814C17.4733 34.3929 17.8202 34.2308 18.1818 34.2308H26.3636C26.7253 34.2308 27.0721 34.3929 27.3279 34.6814C27.5836 34.9699 27.7273 35.3612 27.7273 35.7692Z" fill="#009DE1"/>
</svg>
