<svg width="60" height="60" viewBox="0 0 60 60" fill="none" xmlns="http://www.w3.org/2000/svg">
<rect width="60" height="60" rx="30" fill="#14314D"/>
<path d="M14.9036 18.2581V17C14.5699 17 14.2499 17.1325 14.014 17.3685C13.7781 17.6044 13.6455 17.9244 13.6455 18.2581H14.9036ZM45.0971 18.2581H46.3552C46.3552 17.9244 46.2226 17.6044 45.9867 17.3685C45.7508 17.1325 45.4308 17 45.0971 17V18.2581ZM14.9036 19.5161H45.0971V17H14.9036V19.5161ZM43.8391 18.2581V38.3871H46.3552V18.2581H43.8391ZM41.7423 40.4839H18.2584V43H41.7423V40.4839ZM16.1616 38.3871V18.2581H13.6455V38.3871H16.1616ZM18.2584 40.4839C17.101 40.4839 16.1616 39.5445 16.1616 38.3871H13.6455C13.6455 39.6105 14.1315 40.7838 14.9966 41.6489C15.8617 42.514 17.035 43 18.2584 43V40.4839ZM43.8391 38.3871C43.8391 39.5445 42.8997 40.4839 41.7423 40.4839V43C42.9657 43 44.139 42.514 45.0041 41.6489C45.8692 40.7838 46.3552 39.6105 46.3552 38.3871H43.8391Z" fill="#E0DEE0"/>
<path d="M14.9033 18.2581L30.0001 33.3548L45.0969 18.2581" stroke="#D9D9D9" stroke-width="1.5" stroke-linecap="round" stroke-linejoin="round"/>
</svg>
