<svg width="60" height="60" viewBox="0 0 60 60" fill="none" xmlns="http://www.w3.org/2000/svg">
<rect width="60" height="60" rx="30" fill="#14314D"/>
<path d="M35.9535 35.4986L36.7017 34.764L34.9641 33.0385L34.2191 33.7731L35.9535 35.4986ZM39.2106 34.4559L42.3463 36.1408L43.5196 34.0034L40.3855 32.3201L39.2106 34.4559ZM42.9485 39.4879L40.6185 41.7793L42.3529 43.5031L44.6829 41.2133L42.9485 39.4879ZM39.1975 42.5155C36.8182 42.7361 30.665 42.5399 23.9998 35.9916L22.2637 37.7154C29.5361 44.8621 36.4589 45.2124 39.4272 44.9383L39.1975 42.5155ZM23.9998 35.9916C17.6479 29.7482 16.5945 24.4989 16.4632 22.2204L14.0052 22.3583C14.1693 25.2254 15.4738 31.0439 22.2637 37.7154L23.9998 35.9916ZM26.256 25.9697L26.7269 25.5059L24.9941 23.7821L24.5232 24.2442L26.256 25.9697ZM27.101 19.6112L25.0335 16.8803L23.0628 18.3398L25.1303 21.069L27.101 19.6112ZM18.0746 16.2851L15.4984 18.8149L17.2344 20.5404L19.809 18.0106L18.0746 16.2851ZM25.3896 25.107C24.5199 24.2442 24.5199 24.2442 24.5199 24.2475H24.5166L24.5117 24.254C24.4337 24.3317 24.3639 24.417 24.3033 24.5086C24.2147 24.6383 24.1179 24.8086 24.0359 25.0243C23.8361 25.581 23.7864 26.1796 23.8915 26.7611C24.1113 28.1638 25.0893 30.0174 27.5933 32.4791L29.3293 30.7536C26.9845 28.4508 26.4266 27.0497 26.3232 26.3881C26.274 26.0735 26.3249 25.9178 26.3396 25.8821C26.3495 25.8605 26.3495 25.8573 26.3396 25.8724C26.325 25.8948 26.3085 25.9159 26.2904 25.9356L26.274 25.9519L26.2576 25.9665L25.3896 25.107ZM27.5933 32.4791C30.0989 34.9407 31.9842 35.9008 33.4052 36.1148C34.1321 36.2251 34.7179 36.1375 35.1626 35.9737C35.4117 35.8837 35.6444 35.7545 35.8518 35.591L35.9338 35.5181L35.9453 35.5083L35.9502 35.5035L35.9519 35.5002C35.9519 35.5002 35.9535 35.4986 35.0855 34.6359C34.2158 33.7731 34.2207 33.7715 34.2207 33.7715L34.224 33.7683L34.2273 33.765L34.2372 33.7569L34.2536 33.7407L34.3159 33.6921C34.3312 33.6823 34.3274 33.6834 34.3044 33.6953C34.2634 33.7099 34.1026 33.7602 33.7794 33.7115C33.1 33.6077 31.6725 33.0564 29.3293 30.7536L27.5933 32.4791ZM25.0335 16.8787C23.3598 14.6732 20.0715 14.3229 18.0746 16.2851L19.809 18.0106C20.6819 17.1527 22.2309 17.2419 23.0628 18.3398L25.0335 16.8787ZM16.4649 22.222C16.4321 21.6609 16.693 21.0739 17.2344 20.542L15.4968 18.8165C14.6156 19.6825 13.9215 20.9085 14.0052 22.3583L16.4649 22.222ZM40.6185 41.7793C40.1689 42.2236 39.6832 42.4734 39.1992 42.5172L39.4272 44.9383C40.6333 44.8264 41.6194 44.2264 42.3545 43.5048L40.6185 41.7793ZM26.7269 25.5059C28.3431 23.9183 28.4629 21.4096 27.1026 19.6128L25.132 21.0707C25.7932 21.9447 25.6948 23.0912 24.9925 23.7837L26.7269 25.5059ZM42.348 36.1424C43.6886 36.8624 43.897 38.5587 42.9502 39.4895L44.6862 41.2133C46.885 39.0517 46.2073 35.4467 43.5212 34.005L42.348 36.1424ZM36.7017 34.7656C37.3318 34.1461 38.3459 33.9937 39.2123 34.4575L40.3871 32.3218C38.6084 31.365 36.4031 31.6293 34.9657 33.0402L36.7017 34.7656Z" fill="#E0DEE0"/>
</svg>
