<svg width="71" height="70" viewBox="0 0 71 70" fill="none" xmlns="http://www.w3.org/2000/svg">
<rect x="0.5" width="70" height="70" rx="35" fill="#009DE1"/>
<path d="M37.5221 20.1297C40.3678 20.5027 43.0473 21.678 45.2449 23.5173C45.7951 23.9779 45.7918 24.8049 45.2839 25.3108L42.6532 27.9314C42.1453 28.4373 41.3249 28.4276 40.747 28.0027C39.3054 26.9417 37.571 26.3482 35.7793 26.3027C33.9875 26.2572 32.225 26.762 30.7311 27.7486C29.2372 28.7351 28.0842 30.1556 27.4285 31.8173C26.7728 33.4789 26.6462 35.3014 27.066 37.0372C27.4857 38.773 28.4313 40.3381 29.7746 41.5202C31.1179 42.7022 32.7938 43.444 34.5748 43.6447C36.3558 43.8455 38.1557 43.4955 39.7302 42.6424C41.3047 41.7892 42.5775 40.4742 43.376 38.8757H37.0109C36.6655 38.8757 36.3343 38.739 36.09 38.4957C35.8458 38.2524 35.7086 37.9225 35.7086 37.5784V33.8649C35.7086 33.5208 35.8458 33.1908 36.09 32.9476C36.3343 32.7043 36.6655 32.5676 37.0109 32.5676H49.2088C49.7232 32.5676 50.2018 32.8692 50.3174 33.3703C50.827 35.5789 50.1139 38.6341 50.0602 38.8579L50.0537 38.8838C49.1942 42.067 47.3497 44.8935 44.7239 46.9011C42.7593 48.4025 40.4533 49.3981 38.0101 49.7998C35.567 50.2015 33.0621 49.9967 30.7173 49.2038C28.3725 48.4108 26.2603 47.0541 24.5676 45.2537C22.8749 43.4534 21.654 41.265 21.0131 38.8824C20.3722 36.4998 20.331 33.9966 20.8933 31.5943C21.4555 29.1921 22.6037 26.9651 24.2363 25.1105C25.8688 23.2558 27.9354 21.8309 30.2528 20.9618C32.5702 20.0928 35.067 19.808 37.5221 20.1297Z" stroke="#E0DEE0" stroke-width="1.5" stroke-linecap="round" stroke-linejoin="round"/>
</svg>
