<svg width="71" height="70" viewBox="0 0 71 70" fill="none" xmlns="http://www.w3.org/2000/svg">
<rect x="0.5" width="70" height="70" rx="35" fill="#009DE1"/>
<path fill-rule="evenodd" clip-rule="evenodd" d="M24.5244 20C23.4571 20 22.4334 20.424 21.6787 21.1787C20.924 21.9334 20.5 22.9571 20.5 24.0244C20.5 25.0917 20.924 26.1153 21.6787 26.8701C22.4334 27.6248 23.4571 28.0488 24.5244 28.0488C25.5917 28.0488 26.6153 27.6248 27.3701 26.8701C28.1248 26.1153 28.5488 25.0917 28.5488 24.0244C28.5488 22.9571 28.1248 21.9334 27.3701 21.1787C26.6153 20.424 25.5917 20 24.5244 20ZM22.6951 24.0244C22.6951 23.5392 22.8878 23.074 23.2309 22.7309C23.574 22.3878 24.0392 22.1951 24.5244 22.1951C25.0095 22.1951 25.4748 22.3878 25.8179 22.7309C26.1609 23.074 26.3537 23.5392 26.3537 24.0244C26.3537 24.5095 26.1609 24.9748 25.8179 25.3179C25.4748 25.6609 25.0095 25.8537 24.5244 25.8537C24.0392 25.8537 23.574 25.6609 23.2309 25.3179C22.8878 24.9748 22.6951 24.5095 22.6951 24.0244ZM20.5 29.878C20.5 29.587 20.6156 29.3078 20.8215 29.102C21.0273 28.8961 21.3065 28.7805 21.5976 28.7805H27.4512C27.7423 28.7805 28.0215 28.8961 28.2273 29.102C28.4331 29.3078 28.5488 29.587 28.5488 29.878V48.9024C28.5488 49.1935 28.4331 49.4727 28.2273 49.6785C28.0215 49.8844 27.7423 50 27.4512 50H21.5976C21.3065 50 21.0273 49.8844 20.8215 49.6785C20.6156 49.4727 20.5 49.1935 20.5 48.9024V29.878ZM22.6951 30.9756V47.8049H26.3537V30.9756H22.6951ZM30.7439 29.878C30.7439 29.587 30.8595 29.3078 31.0654 29.102C31.2712 28.8961 31.5504 28.7805 31.8415 28.7805H37.6951C37.9862 28.7805 38.2654 28.8961 38.4712 29.102C38.677 29.3078 38.7927 29.587 38.7927 29.878V30.5132L39.4293 30.2395C40.5269 29.7706 41.6913 29.4768 42.88 29.3688C46.941 29 50.5 32.1902 50.5 36.2878V48.9024C50.5 49.1935 50.3844 49.4727 50.1785 49.6785C49.9727 49.8844 49.6935 50 49.4024 50H43.5488C43.2577 50 42.9785 49.8844 42.7727 49.6785C42.5669 49.4727 42.4512 49.1935 42.4512 48.9024V38.6585C42.4512 38.1734 42.2585 37.7081 41.9154 37.365C41.5724 37.022 41.1071 36.8293 40.622 36.8293C40.1368 36.8293 39.6715 37.022 39.3285 37.365C38.9854 37.7081 38.7927 38.1734 38.7927 38.6585V48.9024C38.7927 49.1935 38.677 49.4727 38.4712 49.6785C38.2654 49.8844 37.9862 50 37.6951 50H31.8415C31.5504 50 31.2712 49.8844 31.0654 49.6785C30.8595 49.4727 30.7439 49.1935 30.7439 48.9024V29.878ZM32.939 30.9756V47.8049H36.5976V38.6585C36.5976 37.5912 37.0216 36.5676 37.7763 35.8129C38.531 35.0581 39.5546 34.6341 40.622 34.6341C41.6893 34.6341 42.7129 35.0581 43.4676 35.8129C44.2223 36.5676 44.6463 37.5912 44.6463 38.6585V47.8049H48.3049V36.2878C48.3049 33.5015 45.8741 31.3005 43.0805 31.5551C42.1207 31.6422 41.1805 31.8792 40.2941 32.2576L38.1283 33.1868C37.9612 33.2586 37.779 33.2877 37.5979 33.2716C37.4168 33.2555 37.2425 33.1947 37.0908 33.0945C36.939 32.9944 36.8145 32.8582 36.7284 32.698C36.6423 32.5379 36.5973 32.3589 36.5976 32.1771V30.9756H32.939Z" fill="#E0DEE0"/>
</svg>
