<svg width="61" height="61" viewBox="0 0 61 61" fill="none" xmlns="http://www.w3.org/2000/svg">
<path d="M30.6822 22.5352C28.6931 22.5352 26.7854 23.3253 25.3789 24.7319C23.9724 26.1384 23.1822 28.046 23.1822 30.0352C23.1822 32.0243 23.9724 33.9319 25.3789 35.3385C26.7854 36.745 28.6931 37.5352 30.6822 37.5352C32.6713 37.5352 34.579 36.745 35.9855 35.3385C37.392 33.9319 38.1822 32.0243 38.1822 30.0352C38.1822 28.046 37.392 26.1384 35.9855 24.7319C34.579 23.3253 32.6713 22.5352 30.6822 22.5352ZM30.6822 17.5352C33.9974 17.5352 37.1768 18.8521 39.521 21.1963C41.8652 23.5405 43.1822 26.72 43.1822 30.0352C43.1822 33.3504 41.8652 36.5298 39.521 38.874C37.1768 41.2182 33.9974 42.5352 30.6822 42.5352C27.367 42.5352 24.1876 41.2182 21.8434 38.874C19.4992 36.5298 18.1822 33.3504 18.1822 30.0352C18.1822 26.72 19.4992 23.5405 21.8434 21.1963C24.1876 18.8521 27.367 17.5352 30.6822 17.5352ZM46.9322 16.9102C46.9322 17.739 46.603 18.5338 46.0169 19.1199C45.4309 19.7059 44.636 20.0352 43.8072 20.0352C42.9784 20.0352 42.1835 19.7059 41.5975 19.1199C41.0114 18.5338 40.6822 17.739 40.6822 16.9102C40.6822 16.0814 41.0114 15.2865 41.5975 14.7004C42.1835 14.1144 42.9784 13.7852 43.8072 13.7852C44.636 13.7852 45.4309 14.1144 46.0169 14.7004C46.603 15.2865 46.9322 16.0814 46.9322 16.9102ZM30.6822 10.0352C24.4972 10.0352 23.4872 10.0527 20.6097 10.1802C18.6497 10.2727 17.3347 10.5352 16.1147 11.0102C15.0943 11.3861 14.1715 11.9867 13.4147 12.7677C12.6329 13.5242 12.0313 14.447 11.6547 15.4677C11.1797 16.6927 10.9172 18.0052 10.8272 19.9627C10.6972 22.7227 10.6797 23.6877 10.6797 30.0352C10.6797 36.2227 10.6972 37.2302 10.8247 40.1077C10.9172 42.0652 11.1797 43.3827 11.6522 44.6002C12.0772 45.6877 12.5772 46.4702 13.4072 47.3002C14.2497 48.1402 15.0322 48.6427 16.1072 49.0577C17.3422 49.5352 18.6572 49.8002 20.6072 49.8902C23.3672 50.0202 24.3322 50.0352 30.6797 50.0352C36.8672 50.0352 37.8747 50.0177 40.7522 49.8902C42.7072 49.7977 44.0222 49.5352 45.2447 49.0627C46.2651 48.6867 47.1879 48.0861 47.9447 47.3052C48.7872 46.4652 49.2897 45.6827 49.7047 44.6052C50.1797 43.3752 50.4447 42.0602 50.5347 40.1052C50.6647 37.3477 50.6797 36.3802 50.6797 30.0352C50.6797 23.8502 50.6622 22.8402 50.5347 19.9627C50.4422 18.0077 50.1772 16.6877 49.7047 15.4677C49.3288 14.4472 48.7281 13.5245 47.9472 12.7677C47.1906 11.9858 46.2678 11.3843 45.2472 11.0077C44.0222 10.5327 42.7072 10.2702 40.7522 10.1802C37.9947 10.0502 37.0297 10.0352 30.6797 10.0352M30.6797 5.03516C37.4722 5.03516 38.3197 5.06016 40.9872 5.18516C43.6472 5.31016 45.4622 5.72766 47.0547 6.34766C48.7047 6.98266 50.0947 7.84266 51.4847 9.23016C52.7564 10.4795 53.7402 11.9913 54.3672 13.6602C54.9847 15.2527 55.4047 17.0677 55.5297 19.7302C55.6472 22.3952 55.6797 23.2427 55.6797 30.0352C55.6797 36.8277 55.6547 37.6752 55.5297 40.3402C55.4047 43.0052 54.9847 44.8152 54.3672 46.4102C53.7402 48.079 52.7564 49.5908 51.4847 50.8402C50.2354 52.1119 48.7235 53.0956 47.0547 53.7227C45.4622 54.3402 43.6472 54.7602 40.9872 54.8852C38.3197 55.0027 37.4722 55.0352 30.6797 55.0352C23.8872 55.0352 23.0397 55.0102 20.3722 54.8852C17.7122 54.7602 15.8997 54.3402 14.3047 53.7227C12.6359 53.0956 11.124 52.1119 9.87469 50.8402C8.60295 49.5908 7.61923 48.079 6.99219 46.4102C6.37219 44.8177 5.95469 43.0027 5.82969 40.3402C5.70969 37.6752 5.67969 36.8277 5.67969 30.0352C5.67969 23.2427 5.70469 22.3952 5.82969 19.7302C5.95469 17.0652 6.37219 15.2552 6.99219 13.6602C7.61923 11.9913 8.60295 10.4795 9.87469 9.23016C11.124 7.95842 12.6359 6.9747 14.3047 6.34766C15.8972 5.72766 17.7097 5.31016 20.3722 5.18516C23.0422 5.06766 23.8897 5.03516 30.6822 5.03516" fill="#E0DEE0"/>
</svg>
