<svg width="50" height="50" viewBox="0 0 50 50" fill="none" xmlns="http://www.w3.org/2000/svg">
<rect width="50" height="50" rx="12" transform="matrix(0 1 1 0 0 0)" fill="#009DE1"/>
<path d="M11.7818 26.6972C11.333 26.2464 11.0811 25.6361 11.0811 25C11.0811 24.3639 11.333 23.7536 11.7818 23.3028L21.3816 13.703C21.6045 13.4801 21.8691 13.3033 22.1603 13.1827C22.4515 13.0621 22.7636 13 23.0788 13C23.7154 13 24.3259 13.2529 24.776 13.703C25.2262 14.1532 25.4791 14.7637 25.4791 15.4003C25.4791 16.0368 25.2262 16.6474 24.776 17.0975L19.2735 22.6001H36.5185C37.155 22.6001 37.7654 22.8529 38.2155 23.303C38.6655 23.7531 38.9184 24.3635 38.9184 25C38.9184 25.6365 38.6655 26.2469 38.2155 26.697C37.7654 27.1471 37.155 27.3999 36.5185 27.3999H19.2735L24.776 32.9025C24.9989 33.1254 25.1757 33.39 25.2964 33.6812C25.417 33.9724 25.4791 34.2845 25.4791 34.5997C25.4791 34.915 25.417 35.2271 25.2964 35.5183C25.1757 35.8095 24.9989 36.0741 24.776 36.297C24.5532 36.5199 24.2886 36.6967 23.9973 36.8173C23.7061 36.9379 23.394 37 23.0788 37C22.7636 37 22.4515 36.9379 22.1603 36.8173C21.8691 36.6967 21.6045 36.5199 21.3816 36.297L11.7818 26.6972Z" fill="#FABF04"/>
</svg>
