<svg width="349" height="179" viewBox="0 0 349 179" fill="none" xmlns="http://www.w3.org/2000/svg">
<g clip-path="url(#clip0_283_49)">
<path d="M238.024 73.4529L237.988 73.4171L238.197 144.958H221.379V47.3933L221.517 47.3218L237.886 41.2692L237.921 43.0426L238.304 62.1115C245.934 56.8943 252.278 51.3598 257.344 45.4815C264.382 37.2714 266.813 30.3791 264.663 24.8848C263.274 21.3024 260.607 19.7703 256.685 20.2929C254.361 20.6056 250.511 21.9993 245.173 24.5052L179.84 55.0539L184.381 38.7008L250.23 7.89742C259.873 3.40823 267.636 0.835328 273.499 0.174234C281.855 -0.732536 287.437 1.88057 290.282 8.03589C294.547 17.1527 289.485 29.0881 275.057 43.7707C265.486 53.6513 253.039 63.6392 238.024 73.4529Z" fill="#FABF04"/>
<path d="M233.207 41.3719L233.242 43.1453V41.3719H233.207Z" fill="#E0DEE0"/>
<path d="M257.945 156.809L258.038 174.998L276.068 174.993L276.161 156.809H257.945Z" fill="#E0DEE0"/>
<path d="M248.538 178.683L235.789 165.756L248.538 152.967L261.15 165.756L248.538 178.683Z" fill="#E0DEE0" stroke="#14314D" stroke-miterlimit="10"/>
<path d="M330.303 80.9706V119.488C330.303 126.657 327.841 132.643 322.846 137.445C317.887 142.524 311.922 145.065 304.951 145.065H210.73C203.585 144.788 197.032 141.76 191.067 135.949C184.755 142.037 177.614 145.065 169.637 145.065H169.361C161.526 144.994 154.416 141.796 148.068 135.564C141.756 141.898 134.579 145.065 126.535 145.065H124.906C121.474 144.891 118.246 144.23 115.264 143.046C111.831 141.411 108.43 138.906 105.105 135.564C98.761 141.898 91.5804 145.065 83.5362 145.065H67.1317C66.6821 147.607 66.1612 149.657 65.6404 151.189C64.5319 155.018 62.2437 158.671 58.7046 162.218C56.1716 164.862 53.9547 166.569 52.0805 167.404C45.7324 169.839 39.4911 171.161 33.3567 171.335C20.8029 170.986 11.8906 167.927 6.65535 162.218C3.11625 158.667 1.10853 155.223 0.654457 151.882C0.204835 148.505 -0.00439453 144.123 -0.00439453 138.696V108.736L16.8141 102.612L16.5381 143.288C17.8914 150.001 23.4383 153.552 33.2187 153.901C40.0832 153.901 44.7308 152.681 47.1258 150.175C49.5163 147.67 50.7316 144.574 50.7316 140.849V43.2882L67.2742 37.1642L67.519 128.467H79.6232C85.9357 128.19 90.374 126.76 92.9026 124.116C95.5024 121.471 96.8201 118.13 96.8201 114.061V95.8273L113.639 89.7033L113.777 116.08C114.124 119.283 115.442 121.927 117.694 124.116C120.33 126.832 123.312 128.185 126.678 128.185C130.284 128.114 133.337 126.76 135.902 124.116C138.501 121.471 139.819 118.13 139.819 114.061V89.8417L156.638 83.7177V114.061C156.638 118.13 157.955 121.507 160.626 124.187C163.297 126.867 166.316 128.19 169.641 128.19H170.888C174.044 127.948 176.782 126.555 179.141 124.12C181.674 121.476 182.956 118.135 182.956 114.065V87.376L199.739 81.1135V114.065C199.739 115.598 199.877 117.268 200.153 119.006C200.429 120.779 201.435 122.521 203.136 124.259C205.669 127.077 208.789 128.471 212.498 128.471H251.926C254.459 128.471 256.538 127.564 258.168 125.755C259.868 124.12 260.732 122.03 260.732 119.493V87.376L277.274 80.975V119.493C277.274 122.137 276.86 125.13 276.059 128.471H304.946C307.372 128.471 309.456 127.564 311.187 125.755C312.817 124.018 313.613 121.927 313.613 119.493V87.376L330.294 80.975L330.303 80.9706Z" fill="#E0DEE0"/>
<path d="M308.748 178.955L296.136 166.028L308.748 153.235L321.502 166.028L308.748 178.955Z" fill="#E0DEE0"/>
</g>
<defs>
<clipPath id="clip0_283_49">
<rect width="349" height="179" fill="white"/>
</clipPath>
</defs>
</svg>
