<svg width="50" height="50" viewBox="0 0 50 50" fill="none" xmlns="http://www.w3.org/2000/svg">
<path d="M10 34C10 31.69 10 30.535 10.5205 29.686C10.8115 29.2105 11.2105 28.8115 11.686 28.5205C12.5335 28 13.69 28 16 28C18.31 28 19.465 28 20.314 28.5205C20.7895 28.8115 21.1885 29.2105 21.4795 29.686C22 30.5335 22 31.69 22 34C22 36.31 22 37.465 21.4795 38.3155C21.1885 38.7895 20.7895 39.1885 20.314 39.4795C19.4665 40 18.31 40 16 40C13.69 40 12.535 40 11.686 39.4795C11.211 39.189 10.8116 38.7901 10.5205 38.3155C10 37.465 10 36.31 10 34ZM28 34C28 31.69 28 30.535 28.5205 29.686C28.8115 29.2105 29.2105 28.8115 29.686 28.5205C30.5335 28 31.69 28 34 28C36.31 28 37.465 28 38.3155 28.5205C38.7895 28.8115 39.1885 29.2105 39.4795 29.686C40 30.5335 40 31.69 40 34C40 36.31 40 37.465 39.4795 38.3155C39.1884 38.7896 38.7896 39.1884 38.3155 39.4795C37.465 40 36.31 40 34 40C31.69 40 30.535 40 29.686 39.4795C29.211 39.189 28.8116 38.7901 28.5205 38.3155C28 37.465 28 36.31 28 34ZM10 16C10 13.69 10 12.535 10.5205 11.686C10.8115 11.2105 11.2105 10.8115 11.686 10.5205C12.5335 10 13.69 10 16 10C18.31 10 19.465 10 20.314 10.5205C20.7895 10.8115 21.1885 11.2105 21.4795 11.686C22 12.5335 22 13.69 22 16C22 18.31 22 19.465 21.4795 20.314C21.1885 20.7895 20.7895 21.1885 20.314 21.4795C19.4665 22 18.31 22 16 22C13.69 22 12.535 22 11.686 21.4795C11.2109 21.1886 10.8114 20.7891 10.5205 20.314C10 19.4665 10 18.31 10 16ZM28 16C28 13.69 28 12.535 28.5205 11.686C28.8115 11.2105 29.2105 10.8115 29.686 10.5205C30.5335 10 31.69 10 34 10C36.31 10 37.465 10 38.3155 10.5205C38.7895 10.8115 39.1885 11.2105 39.4795 11.686C40 12.5335 40 13.69 40 16C40 18.31 40 19.465 39.4795 20.314C39.1885 20.7895 38.7895 21.1885 38.3155 21.4795C37.465 22 36.31 22 34 22C31.69 22 30.535 22 29.686 21.4795C29.2109 21.1886 28.8114 20.7891 28.5205 20.314C28 19.4665 28 18.31 28 16Z" stroke="#009DE1" stroke-width="2" stroke-linecap="round" stroke-linejoin="round"/>
</svg>
