<svg width="50" height="50" viewBox="0 0 50 50" fill="none" xmlns="http://www.w3.org/2000/svg">
<mask id="path-2-inside-1_185_1348" fill="white">
<path d="M7.72727 7C7.48617 7.00002 7.25496 7.09031 7.08448 7.251C6.91399 7.41169 6.81821 7.62962 6.81818 7.85687V11.1622C6.78166 11.2766 6.38257 12.5269 5.94638 13.9303C5.71852 14.6633 5.49032 15.4073 5.31783 15.9904C5.23158 16.282 5.1594 16.5325 5.10653 16.7285C5.0801 16.8265 5.05812 16.9092 5.04084 16.9845C5.02356 17.0599 5 17.0581 5 17.2824C5 18.1641 5.36803 18.9641 5.95526 19.5736C5.92355 19.6637 5.90795 19.7581 5.90909 19.853V42.1317C5.90912 42.3589 6.0049 42.5768 6.17538 42.7375C6.34587 42.8982 6.57708 42.9885 6.81818 42.9885H12.12C12.2182 43.0038 12.3184 43.0038 12.4165 42.9885H24.8473C24.9455 43.0038 25.0456 43.0038 25.1438 42.9885H37.5746C37.6727 43.0038 37.7729 43.0038 37.8711 42.9885H43.1818C43.4229 42.9885 43.6541 42.8982 43.8246 42.7375C43.9951 42.5768 44.0909 42.3589 44.0909 42.1317V19.853C44.0921 19.7581 44.0765 19.6637 44.0447 19.5736C44.632 18.9641 45 18.1641 45 17.2824C45 17.0581 44.9764 17.0599 44.9592 16.9845C44.9419 16.9092 44.9199 16.8265 44.8935 16.7285C44.8406 16.5325 44.7684 16.282 44.6822 15.9904C44.5097 15.4073 44.2815 14.6633 44.0536 13.9303C43.6174 12.5269 43.2183 11.2766 43.1818 11.1622V7.85687C43.1818 7.62962 43.086 7.41169 42.9155 7.251C42.745 7.09031 42.5138 7.00002 42.2727 7H7.72727ZM8.63636 8.71374H41.3636V10.4275H8.63636V8.71374ZM8.40554 12.1412H41.5945C41.73 12.5675 41.9527 13.2628 42.31 14.4123C42.5367 15.1416 42.763 15.8813 42.9315 16.4507C43.0157 16.7354 43.0855 16.9776 43.1321 17.1502C43.1505 17.2183 43.1611 17.2646 43.1712 17.3059C43.1558 18.2495 42.3689 18.9962 41.3636 18.9962C40.3485 18.9962 39.5455 18.2393 39.5455 17.2824C39.5466 17.0597 39.4557 16.8452 39.2919 16.6845C39.1282 16.5239 38.9045 16.4296 38.6683 16.4218C38.432 16.414 38.2019 16.4932 38.0265 16.6426C37.8512 16.792 37.7445 16.9999 37.729 17.2222C37.7277 17.2422 37.7271 17.2623 37.7273 17.2824C37.7273 18.2393 36.9242 18.9962 35.9091 18.9962C34.8939 18.9962 34.0909 18.2393 34.0909 17.2824C34.094 17.0801 34.021 16.8833 33.8849 16.7268C33.8659 16.7053 33.8458 16.6846 33.8246 16.6649C33.7603 16.6041 33.6867 16.5528 33.6062 16.5126H33.6044C33.5778 16.499 33.5506 16.4868 33.5227 16.4758C33.4382 16.4439 33.349 16.4241 33.2582 16.4172C33.2281 16.4147 33.1978 16.4135 33.1676 16.4139C33.1067 16.4148 33.046 16.4215 32.9865 16.4339C32.9571 16.4398 32.9281 16.4471 32.8995 16.4557C32.8712 16.4644 32.8433 16.4745 32.8161 16.4858L32.8143 16.4875C32.7699 16.506 32.7271 16.5278 32.6864 16.5528C32.6762 16.5587 32.6662 16.5648 32.6562 16.5712C32.646 16.5788 32.6359 16.5866 32.6261 16.5946C32.5882 16.6215 32.5525 16.6512 32.5195 16.6833C32.4781 16.7249 32.4413 16.7703 32.4094 16.8189C32.3934 16.8427 32.3786 16.8673 32.3651 16.8925V16.8942C32.3519 16.9193 32.34 16.945 32.3295 16.9712V16.9728C32.3193 16.9992 32.3104 17.026 32.3029 17.0532V17.0548C32.295 17.0818 32.2885 17.1092 32.2834 17.1368V17.1385C32.279 17.1662 32.276 17.1942 32.2745 17.2222V17.2239C32.2732 17.2434 32.2726 17.2629 32.2727 17.2824C32.2727 18.2393 31.4697 18.9962 30.4545 18.9962C29.4394 18.9962 28.6364 18.2393 28.6364 17.2824C28.6367 17.2539 28.6355 17.2255 28.6328 17.1971C28.6169 17.0252 28.5464 16.8619 28.4304 16.7285V16.7268C28.353 16.6384 28.2576 16.5656 28.1499 16.5126C28.1233 16.499 28.096 16.4868 28.0682 16.4758C27.9836 16.4439 27.8944 16.4241 27.8036 16.4172C27.7433 16.4121 27.6827 16.4126 27.6225 16.4189C27.5921 16.4225 27.5619 16.4275 27.532 16.4339C27.4735 16.4459 27.4164 16.4633 27.3615 16.4858L27.3597 16.4875C27.3153 16.506 27.2726 16.5278 27.2319 16.5528C27.2112 16.5659 27.191 16.5799 27.1715 16.5946C27.1336 16.6215 27.098 16.6512 27.065 16.6833C27.0027 16.7454 26.9507 16.8159 26.9105 16.8925V16.8942C26.8973 16.9193 26.8855 16.945 26.875 16.9712V16.9728C26.8647 16.9992 26.8558 17.026 26.8484 17.0532V17.0548C26.8404 17.0818 26.8339 17.1092 26.8288 17.1368V17.1385C26.8244 17.1662 26.8215 17.1942 26.82 17.2222V17.2239C26.8187 17.2434 26.8181 17.2629 26.8182 17.2824C26.8182 18.2393 26.0152 18.9962 25 18.9962C23.9848 18.9962 23.1818 18.2393 23.1818 17.2824C23.1821 17.2539 23.181 17.2255 23.1783 17.1971C23.1624 17.0252 23.0918 16.8619 22.9759 16.7285V16.7268C22.8985 16.6384 22.8031 16.5656 22.6953 16.5126C22.6688 16.499 22.6415 16.4868 22.6136 16.4758C22.4725 16.4219 22.3192 16.4024 22.168 16.4189C22.1375 16.4225 22.1073 16.4275 22.0774 16.4339C22.0189 16.4459 21.9618 16.4633 21.907 16.4858L21.9052 16.4875C21.8608 16.506 21.818 16.5278 21.7773 16.5528C21.7672 16.5587 21.7571 16.5648 21.7472 16.5712C21.7369 16.5788 21.7269 16.5866 21.717 16.5946C21.607 16.6739 21.5178 16.7758 21.456 16.8925V16.8942C21.4428 16.9193 21.431 16.945 21.4205 16.9712V16.9728C21.4102 16.9992 21.4013 17.026 21.3938 17.0532V17.0548C21.3859 17.0818 21.3794 17.1092 21.3743 17.1368V17.1385C21.3699 17.1662 21.3669 17.1942 21.3654 17.2222V17.2239C21.3641 17.2434 21.3635 17.2629 21.3636 17.2824C21.3636 18.2393 20.5606 18.9962 19.5455 18.9962C18.5303 18.9962 17.7273 18.2393 17.7273 17.2824C17.7276 17.2539 17.7264 17.2255 17.7237 17.1971C17.7078 17.0252 17.6373 16.8619 17.5213 16.7285V16.7268C17.4439 16.6384 17.3485 16.5656 17.2408 16.5126C17.2142 16.499 17.1869 16.4868 17.1591 16.4758C17.0179 16.4219 16.8647 16.4024 16.7134 16.4189C16.683 16.4225 16.6528 16.4275 16.6229 16.4339C16.5644 16.4459 16.5073 16.4633 16.4524 16.4858L16.4506 16.4875C16.4062 16.506 16.3635 16.5278 16.3228 16.5528C16.3126 16.5587 16.3025 16.5648 16.2926 16.5712C16.2824 16.5788 16.2723 16.5866 16.2624 16.5946C16.1525 16.6739 16.0632 16.7758 16.0014 16.8925V16.8942C15.9883 16.9193 15.9764 16.945 15.9659 16.9712V16.9728C15.9556 16.9992 15.9468 17.026 15.9393 17.0532V17.0548C15.9313 17.0818 15.9248 17.1092 15.9197 17.1368V17.1385C15.9153 17.1662 15.9124 17.1942 15.9109 17.2222V17.2239C15.9096 17.2434 15.909 17.2629 15.9091 17.2824C15.9091 18.2393 15.1061 18.9962 14.0909 18.9962C13.0758 18.9962 12.2727 18.2393 12.2727 17.2824C12.273 17.2539 12.2719 17.2255 12.2692 17.1971C12.2533 17.0252 12.1827 16.8619 12.0668 16.7285V16.7268C11.9894 16.6384 11.894 16.5656 11.7862 16.5126C11.7597 16.499 11.7324 16.4868 11.7045 16.4758C11.5634 16.4219 11.4101 16.4024 11.2589 16.4189C11.2284 16.4225 11.1982 16.4275 11.1683 16.4339C11.1098 16.4459 11.0527 16.4633 10.9979 16.4858L10.9961 16.4875C10.9517 16.506 10.9089 16.5278 10.8683 16.5528C10.8581 16.5587 10.848 16.5648 10.8381 16.5712C10.8278 16.5788 10.8178 16.5866 10.8079 16.5946C10.698 16.6739 10.6087 16.7758 10.5469 16.8925V16.8942C10.5337 16.9193 10.5219 16.945 10.5114 16.9712V16.9728C10.5011 16.9992 10.4922 17.026 10.4847 17.0532V17.0548C10.4768 17.0818 10.4703 17.1092 10.4652 17.1368V17.1385C10.4608 17.1662 10.4578 17.1942 10.4563 17.2222V17.2239C10.455 17.2434 10.4544 17.2629 10.4545 17.2824C10.4545 18.2393 9.65151 18.9962 8.63636 18.9962C7.63106 18.9962 6.84421 18.2495 6.82884 17.3059C6.83886 17.2646 6.84955 17.2183 6.8679 17.1502C6.91447 16.9776 6.98433 16.7354 7.06854 16.4507C7.23695 15.8813 7.4633 15.1416 7.68999 14.4123C8.04729 13.2628 8.27001 12.5675 8.40554 12.1412ZM11.3636 19.52C12.032 20.2419 13.0026 20.7099 14.0909 20.7099C15.1792 20.7099 16.1499 20.2419 16.8182 19.52C17.4865 20.2419 18.4571 20.7099 19.5455 20.7099C20.6338 20.7099 21.6044 20.2419 22.2727 19.52C22.941 20.2419 23.9117 20.7099 25 20.7099C26.0883 20.7099 27.059 20.2419 27.7273 19.52C28.3956 20.2419 29.3662 20.7099 30.4545 20.7099C31.5429 20.7099 32.5135 20.2419 33.1818 19.52C33.8501 20.2419 34.8208 20.7099 35.9091 20.7099C36.9974 20.7099 37.968 20.2419 38.6364 19.52C39.3047 20.2419 40.2753 20.7099 41.3636 20.7099C41.6791 20.7099 41.9802 20.6584 42.2727 20.5861V41.2748H38.6364V24.1374C38.6363 23.9101 38.5406 23.6922 38.3701 23.5315C38.1996 23.3708 37.9684 23.2805 37.7273 23.2805H25.1403C25.0892 23.2725 25.0375 23.2686 24.9858 23.2688C24.9418 23.2697 24.8978 23.2736 24.8544 23.2805H12.2727C12.0316 23.2805 11.8004 23.3708 11.6299 23.5315C11.4594 23.6922 11.3637 23.9101 11.3636 24.1374V41.2748H7.72727V20.5861C8.01979 20.6584 8.32091 20.7099 8.63636 20.7099C9.72468 20.7099 10.6953 20.2419 11.3636 19.52ZM13.1818 24.9943H24.0909V41.2748H13.1818V24.9943ZM25.9091 24.9943H36.8182V41.2748H25.9091V24.9943ZM21.3636 31.8492C21.1225 31.8492 20.8913 31.9395 20.7208 32.1002C20.5503 32.2609 20.4545 32.4788 20.4545 32.7061C20.4545 32.9333 20.5503 33.1513 20.7208 33.312C20.8913 33.4727 21.1225 33.563 21.3636 33.563C21.6047 33.563 21.836 33.4727 22.0065 33.312C22.177 33.1513 22.2727 32.9333 22.2727 32.7061C22.2727 32.4788 22.177 32.2609 22.0065 32.1002C21.836 31.9395 21.6047 31.8492 21.3636 31.8492ZM28.6364 31.8492C28.3953 31.8492 28.164 31.9395 27.9935 32.1002C27.8231 32.2609 27.7273 32.4788 27.7273 32.7061C27.7273 32.9333 27.8231 33.1513 27.9935 33.312C28.164 33.4727 28.3953 33.563 28.6364 33.563C28.8775 33.563 29.1087 33.4727 29.2792 33.312C29.4497 33.1513 29.5455 32.9333 29.5455 32.7061C29.5455 32.4788 29.4497 32.2609 29.2792 32.1002C29.1087 31.9395 28.8775 31.8492 28.6364 31.8492Z"/>
</mask>
<path d="M7.72727 7C7.48617 7.00002 7.25496 7.09031 7.08448 7.251C6.91399 7.41169 6.81821 7.62962 6.81818 7.85687V11.1622C6.78166 11.2766 6.38257 12.5269 5.94638 13.9303C5.71852 14.6633 5.49032 15.4073 5.31783 15.9904C5.23158 16.282 5.1594 16.5325 5.10653 16.7285C5.0801 16.8265 5.05812 16.9092 5.04084 16.9845C5.02356 17.0599 5 17.0581 5 17.2824C5 18.1641 5.36803 18.9641 5.95526 19.5736C5.92355 19.6637 5.90795 19.7581 5.90909 19.853V42.1317C5.90912 42.3589 6.0049 42.5768 6.17538 42.7375C6.34587 42.8982 6.57708 42.9885 6.81818 42.9885H12.12C12.2182 43.0038 12.3184 43.0038 12.4165 42.9885H24.8473C24.9455 43.0038 25.0456 43.0038 25.1438 42.9885H37.5746C37.6727 43.0038 37.7729 43.0038 37.8711 42.9885H43.1818C43.4229 42.9885 43.6541 42.8982 43.8246 42.7375C43.9951 42.5768 44.0909 42.3589 44.0909 42.1317V19.853C44.0921 19.7581 44.0765 19.6637 44.0447 19.5736C44.632 18.9641 45 18.1641 45 17.2824C45 17.0581 44.9764 17.0599 44.9592 16.9845C44.9419 16.9092 44.9199 16.8265 44.8935 16.7285C44.8406 16.5325 44.7684 16.282 44.6822 15.9904C44.5097 15.4073 44.2815 14.6633 44.0536 13.9303C43.6174 12.5269 43.2183 11.2766 43.1818 11.1622V7.85687C43.1818 7.62962 43.086 7.41169 42.9155 7.251C42.745 7.09031 42.5138 7.00002 42.2727 7H7.72727ZM8.63636 8.71374H41.3636V10.4275H8.63636V8.71374ZM8.40554 12.1412H41.5945C41.73 12.5675 41.9527 13.2628 42.31 14.4123C42.5367 15.1416 42.763 15.8813 42.9315 16.4507C43.0157 16.7354 43.0855 16.9776 43.1321 17.1502C43.1505 17.2183 43.1611 17.2646 43.1712 17.3059C43.1558 18.2495 42.3689 18.9962 41.3636 18.9962C40.3485 18.9962 39.5455 18.2393 39.5455 17.2824C39.5466 17.0597 39.4557 16.8452 39.2919 16.6845C39.1282 16.5239 38.9045 16.4296 38.6683 16.4218C38.432 16.414 38.2019 16.4932 38.0265 16.6426C37.8512 16.792 37.7445 16.9999 37.729 17.2222C37.7277 17.2422 37.7271 17.2623 37.7273 17.2824C37.7273 18.2393 36.9242 18.9962 35.9091 18.9962C34.8939 18.9962 34.0909 18.2393 34.0909 17.2824C34.094 17.0801 34.021 16.8833 33.8849 16.7268C33.8659 16.7053 33.8458 16.6846 33.8246 16.6649C33.7603 16.6041 33.6867 16.5528 33.6062 16.5126H33.6044C33.5778 16.499 33.5506 16.4868 33.5227 16.4758C33.4382 16.4439 33.349 16.4241 33.2582 16.4172C33.2281 16.4147 33.1978 16.4135 33.1676 16.4139C33.1067 16.4148 33.046 16.4215 32.9865 16.4339C32.9571 16.4398 32.9281 16.4471 32.8995 16.4557C32.8712 16.4644 32.8433 16.4745 32.8161 16.4858L32.8143 16.4875C32.7699 16.506 32.7271 16.5278 32.6864 16.5528C32.6762 16.5587 32.6662 16.5648 32.6562 16.5712C32.646 16.5788 32.6359 16.5866 32.6261 16.5946C32.5882 16.6215 32.5525 16.6512 32.5195 16.6833C32.4781 16.7249 32.4413 16.7703 32.4094 16.8189C32.3934 16.8427 32.3786 16.8673 32.3651 16.8925V16.8942C32.3519 16.9193 32.34 16.945 32.3295 16.9712V16.9728C32.3193 16.9992 32.3104 17.026 32.3029 17.0532V17.0548C32.295 17.0818 32.2885 17.1092 32.2834 17.1368V17.1385C32.279 17.1662 32.276 17.1942 32.2745 17.2222V17.2239C32.2732 17.2434 32.2726 17.2629 32.2727 17.2824C32.2727 18.2393 31.4697 18.9962 30.4545 18.9962C29.4394 18.9962 28.6364 18.2393 28.6364 17.2824C28.6367 17.2539 28.6355 17.2255 28.6328 17.1971C28.6169 17.0252 28.5464 16.8619 28.4304 16.7285V16.7268C28.353 16.6384 28.2576 16.5656 28.1499 16.5126C28.1233 16.499 28.096 16.4868 28.0682 16.4758C27.9836 16.4439 27.8944 16.4241 27.8036 16.4172C27.7433 16.4121 27.6827 16.4126 27.6225 16.4189C27.5921 16.4225 27.5619 16.4275 27.532 16.4339C27.4735 16.4459 27.4164 16.4633 27.3615 16.4858L27.3597 16.4875C27.3153 16.506 27.2726 16.5278 27.2319 16.5528C27.2112 16.5659 27.191 16.5799 27.1715 16.5946C27.1336 16.6215 27.098 16.6512 27.065 16.6833C27.0027 16.7454 26.9507 16.8159 26.9105 16.8925V16.8942C26.8973 16.9193 26.8855 16.945 26.875 16.9712V16.9728C26.8647 16.9992 26.8558 17.026 26.8484 17.0532V17.0548C26.8404 17.0818 26.8339 17.1092 26.8288 17.1368V17.1385C26.8244 17.1662 26.8215 17.1942 26.82 17.2222V17.2239C26.8187 17.2434 26.8181 17.2629 26.8182 17.2824C26.8182 18.2393 26.0152 18.9962 25 18.9962C23.9848 18.9962 23.1818 18.2393 23.1818 17.2824C23.1821 17.2539 23.181 17.2255 23.1783 17.1971C23.1624 17.0252 23.0918 16.8619 22.9759 16.7285V16.7268C22.8985 16.6384 22.8031 16.5656 22.6953 16.5126C22.6688 16.499 22.6415 16.4868 22.6136 16.4758C22.4725 16.4219 22.3192 16.4024 22.168 16.4189C22.1375 16.4225 22.1073 16.4275 22.0774 16.4339C22.0189 16.4459 21.9618 16.4633 21.907 16.4858L21.9052 16.4875C21.8608 16.506 21.818 16.5278 21.7773 16.5528C21.7672 16.5587 21.7571 16.5648 21.7472 16.5712C21.7369 16.5788 21.7269 16.5866 21.717 16.5946C21.607 16.6739 21.5178 16.7758 21.456 16.8925V16.8942C21.4428 16.9193 21.431 16.945 21.4205 16.9712V16.9728C21.4102 16.9992 21.4013 17.026 21.3938 17.0532V17.0548C21.3859 17.0818 21.3794 17.1092 21.3743 17.1368V17.1385C21.3699 17.1662 21.3669 17.1942 21.3654 17.2222V17.2239C21.3641 17.2434 21.3635 17.2629 21.3636 17.2824C21.3636 18.2393 20.5606 18.9962 19.5455 18.9962C18.5303 18.9962 17.7273 18.2393 17.7273 17.2824C17.7276 17.2539 17.7264 17.2255 17.7237 17.1971C17.7078 17.0252 17.6373 16.8619 17.5213 16.7285V16.7268C17.4439 16.6384 17.3485 16.5656 17.2408 16.5126C17.2142 16.499 17.1869 16.4868 17.1591 16.4758C17.0179 16.4219 16.8647 16.4024 16.7134 16.4189C16.683 16.4225 16.6528 16.4275 16.6229 16.4339C16.5644 16.4459 16.5073 16.4633 16.4524 16.4858L16.4506 16.4875C16.4062 16.506 16.3635 16.5278 16.3228 16.5528C16.3126 16.5587 16.3025 16.5648 16.2926 16.5712C16.2824 16.5788 16.2723 16.5866 16.2624 16.5946C16.1525 16.6739 16.0632 16.7758 16.0014 16.8925V16.8942C15.9883 16.9193 15.9764 16.945 15.9659 16.9712V16.9728C15.9556 16.9992 15.9468 17.026 15.9393 17.0532V17.0548C15.9313 17.0818 15.9248 17.1092 15.9197 17.1368V17.1385C15.9153 17.1662 15.9124 17.1942 15.9109 17.2222V17.2239C15.9096 17.2434 15.909 17.2629 15.9091 17.2824C15.9091 18.2393 15.1061 18.9962 14.0909 18.9962C13.0758 18.9962 12.2727 18.2393 12.2727 17.2824C12.273 17.2539 12.2719 17.2255 12.2692 17.1971C12.2533 17.0252 12.1827 16.8619 12.0668 16.7285V16.7268C11.9894 16.6384 11.894 16.5656 11.7862 16.5126C11.7597 16.499 11.7324 16.4868 11.7045 16.4758C11.5634 16.4219 11.4101 16.4024 11.2589 16.4189C11.2284 16.4225 11.1982 16.4275 11.1683 16.4339C11.1098 16.4459 11.0527 16.4633 10.9979 16.4858L10.9961 16.4875C10.9517 16.506 10.9089 16.5278 10.8683 16.5528C10.8581 16.5587 10.848 16.5648 10.8381 16.5712C10.8278 16.5788 10.8178 16.5866 10.8079 16.5946C10.698 16.6739 10.6087 16.7758 10.5469 16.8925V16.8942C10.5337 16.9193 10.5219 16.945 10.5114 16.9712V16.9728C10.5011 16.9992 10.4922 17.026 10.4847 17.0532V17.0548C10.4768 17.0818 10.4703 17.1092 10.4652 17.1368V17.1385C10.4608 17.1662 10.4578 17.1942 10.4563 17.2222V17.2239C10.455 17.2434 10.4544 17.2629 10.4545 17.2824C10.4545 18.2393 9.65151 18.9962 8.63636 18.9962C7.63106 18.9962 6.84421 18.2495 6.82884 17.3059C6.83886 17.2646 6.84955 17.2183 6.8679 17.1502C6.91447 16.9776 6.98433 16.7354 7.06854 16.4507C7.23695 15.8813 7.4633 15.1416 7.68999 14.4123C8.04729 13.2628 8.27001 12.5675 8.40554 12.1412ZM11.3636 19.52C12.032 20.2419 13.0026 20.7099 14.0909 20.7099C15.1792 20.7099 16.1499 20.2419 16.8182 19.52C17.4865 20.2419 18.4571 20.7099 19.5455 20.7099C20.6338 20.7099 21.6044 20.2419 22.2727 19.52C22.941 20.2419 23.9117 20.7099 25 20.7099C26.0883 20.7099 27.059 20.2419 27.7273 19.52C28.3956 20.2419 29.3662 20.7099 30.4545 20.7099C31.5429 20.7099 32.5135 20.2419 33.1818 19.52C33.8501 20.2419 34.8208 20.7099 35.9091 20.7099C36.9974 20.7099 37.968 20.2419 38.6364 19.52C39.3047 20.2419 40.2753 20.7099 41.3636 20.7099C41.6791 20.7099 41.9802 20.6584 42.2727 20.5861V41.2748H38.6364V24.1374C38.6363 23.9101 38.5406 23.6922 38.3701 23.5315C38.1996 23.3708 37.9684 23.2805 37.7273 23.2805H25.1403C25.0892 23.2725 25.0375 23.2686 24.9858 23.2688C24.9418 23.2697 24.8978 23.2736 24.8544 23.2805H12.2727C12.0316 23.2805 11.8004 23.3708 11.6299 23.5315C11.4594 23.6922 11.3637 23.9101 11.3636 24.1374V41.2748H7.72727V20.5861C8.01979 20.6584 8.32091 20.7099 8.63636 20.7099C9.72468 20.7099 10.6953 20.2419 11.3636 19.52ZM13.1818 24.9943H24.0909V41.2748H13.1818V24.9943ZM25.9091 24.9943H36.8182V41.2748H25.9091V24.9943ZM21.3636 31.8492C21.1225 31.8492 20.8913 31.9395 20.7208 32.1002C20.5503 32.2609 20.4545 32.4788 20.4545 32.7061C20.4545 32.9333 20.5503 33.1513 20.7208 33.312C20.8913 33.4727 21.1225 33.563 21.3636 33.563C21.6047 33.563 21.836 33.4727 22.0065 33.312C22.177 33.1513 22.2727 32.9333 22.2727 32.7061C22.2727 32.4788 22.177 32.2609 22.0065 32.1002C21.836 31.9395 21.6047 31.8492 21.3636 31.8492ZM28.6364 31.8492C28.3953 31.8492 28.164 31.9395 27.9935 32.1002C27.8231 32.2609 27.7273 32.4788 27.7273 32.7061C27.7273 32.9333 27.8231 33.1513 27.9935 33.312C28.164 33.4727 28.3953 33.563 28.6364 33.563C28.8775 33.563 29.1087 33.4727 29.2792 33.312C29.4497 33.1513 29.5455 32.9333 29.5455 32.7061C29.5455 32.4788 29.4497 32.2609 29.2792 32.1002C29.1087 31.9395 28.8775 31.8492 28.6364 31.8492Z" fill="#009DE1" stroke="#009DE1" stroke-width="4" mask="url(#path-2-inside-1_185_1348)"/>
</svg>
