<svg width="50" height="50" viewBox="0 0 50 50" fill="none" xmlns="http://www.w3.org/2000/svg">
<path d="M12.9379 11H32.5416C35.2536 11 37.4802 13.3006 37.4802 16.1037V26.1449C36.85 25.7948 36.2178 25.4496 35.5976 25.1201V16.1037C35.5976 14.3658 34.2236 12.9451 32.5416 12.9451H12.9379C11.2552 12.9451 9.88194 14.3645 9.88194 16.1037V27.7077C9.88194 29.4421 11.2605 30.8655 12.9379 30.8655H28.9231L29.2253 32.8113H12.9379C10.2219 32.8113 8 30.5148 8 27.7077V16.1037C8 13.2999 10.2253 11 12.9379 11ZM38.5998 38.8813C38.2279 39.1003 37.7438 39.0124 37.4842 38.6494L35.6155 35.9857L34.3166 37.8429C34.2097 37.9953 34.0928 38.1325 33.9713 38.2465C33.197 38.9809 32.2374 38.7942 32.0376 37.6116L30.3768 26.2018C30.2712 25.683 30.7805 25.2725 31.2467 25.4832C34.0251 26.6315 38.4059 29.1064 41.2739 30.72C42.6505 31.4997 41.8337 32.6782 40.7712 33.0255C40.1264 33.2801 39.3249 33.4977 38.6529 33.7166L40.5169 36.3988C40.7719 36.7777 40.6843 37.3055 40.3376 37.5903C39.8363 37.9582 39.1018 38.6006 38.5998 38.8813ZM38.1901 37.9815L39.6756 36.8731C39.1941 36.1922 37.5665 34.1353 37.3414 33.5224C37.2624 33.265 37.4038 32.9877 37.6528 32.9074C38.556 32.6198 39.4989 32.3624 40.4107 32.0955C40.6205 32.0261 40.8058 31.9335 40.9492 31.7564C40.8768 31.6809 40.8337 31.6452 40.7407 31.5931L31.5229 26.7797L33.0463 37.3082C33.0516 37.3384 33.1067 37.569 33.1193 37.5848C33.3424 37.4476 33.4527 37.3618 33.6114 37.1353C33.9348 36.637 34.8824 34.9548 35.2529 34.6665C35.4648 34.5162 35.7576 34.5663 35.909 34.7818L38.1901 37.9815ZM23.4506 25.7825V18.0288H26.8114C28.1634 18.0288 29.0918 18.3267 29.5958 18.9225C30.0998 19.5175 30.3522 20.5127 30.3522 21.906C30.3522 23.2993 30.0998 24.2938 29.5958 24.8889C29.0918 25.4846 28.1634 25.7825 26.8114 25.7825H23.4506ZM26.8473 20.0144H25.8512V23.7976H26.8473C27.1753 23.7976 27.4137 23.7578 27.5611 23.6795C27.7092 23.6013 27.7836 23.4208 27.7836 23.14V20.6713C27.7836 20.3906 27.7092 20.2107 27.5611 20.1318C27.4137 20.0536 27.1753 20.0144 26.8473 20.0144ZM17.66 25.7825H15.1273L17.0717 18.0288H20.7805L22.7248 25.7825H20.1921L19.9165 24.5539H17.9356L17.66 25.7825ZM18.86 20.4111L18.3679 22.582H19.4723L18.9921 20.4111H18.86Z" fill="#009DE1"/>
</svg>
