<svg width="50" height="50" viewBox="0 0 50 50" fill="none" xmlns="http://www.w3.org/2000/svg">
<rect x="50" width="50" height="50" rx="12" transform="rotate(90 50 0)" fill="#009DE1"/>
<path d="M38.2182 26.6972C38.667 26.2464 38.9189 25.6361 38.9189 25C38.9189 24.3639 38.667 23.7536 38.2182 23.3028L28.6184 13.703C28.3955 13.4801 28.1309 13.3033 27.8397 13.1827C27.5485 13.0621 27.2364 13 26.9212 13C26.2846 13 25.6741 13.2529 25.224 13.703C24.7738 14.1532 24.5209 14.7637 24.5209 15.4003C24.5209 16.0368 24.7738 16.6474 25.224 17.0975L30.7265 22.6001H13.4815C12.845 22.6001 12.2346 22.8529 11.7845 23.303C11.3345 23.7531 11.0816 24.3635 11.0816 25C11.0816 25.6365 11.3345 26.2469 11.7845 26.697C12.2346 27.1471 12.845 27.3999 13.4815 27.3999H30.7265L25.224 32.9025C25.0011 33.1254 24.8243 33.39 24.7036 33.6812C24.583 33.9724 24.5209 34.2845 24.5209 34.5997C24.5209 34.915 24.583 35.2271 24.7036 35.5183C24.8243 35.8095 25.0011 36.0741 25.224 36.297C25.4468 36.5199 25.7114 36.6967 26.0027 36.8173C26.2939 36.9379 26.606 37 26.9212 37C27.2364 37 27.5485 36.9379 27.8397 36.8173C28.1309 36.6967 28.3955 36.5199 28.6184 36.297L38.2182 26.6972Z" fill="#FABF04"/>
</svg>
