<svg width="60" height="60" viewBox="0 0 60 60" fill="none" xmlns="http://www.w3.org/2000/svg">
<rect width="60" height="60" rx="30" fill="#14314D"/>
<path d="M30 48.7777C37.2222 38.6666 43 29.9999 43 24.2222C43 20.7744 41.6304 17.4678 39.1924 15.0298C36.7544 12.5918 33.4478 11.2222 30 11.2222C26.5522 11.2222 23.2456 12.5918 20.8076 15.0298C18.3696 17.4678 17 20.7744 17 24.2222C17 29.9999 22.7778 38.6666 30 48.7777Z" stroke="#E0DEE0"/>
<path d="M35.7772 24.2221C35.7772 25.7545 35.1685 27.2241 34.085 28.3076C33.0014 29.3912 31.5318 29.9999 29.9995 29.9999C28.4671 29.9999 26.9975 29.3912 25.914 28.3076C24.8304 27.2241 24.2217 25.7545 24.2217 24.2221C24.2217 22.6898 24.8304 21.2202 25.914 20.1366C26.9975 19.0531 28.4671 18.4443 29.9995 18.4443C31.5318 18.4443 33.0014 19.0531 34.085 20.1366C35.1685 21.2202 35.7772 22.6898 35.7772 24.2221Z" stroke="#E0DEE0"/>
</svg>
