<svg width="31" height="31" viewBox="0 0 31 31" fill="none" xmlns="http://www.w3.org/2000/svg">
<path d="M13.8479 6.3541C14.4466 4.51148 17.0534 4.51148 17.6521 6.3541L18.6687 9.48278C18.9364 10.3068 19.7043 10.8647 20.5708 10.8647H23.8605C25.7979 10.8647 26.6035 13.344 25.0361 14.4828L22.3746 16.4164C21.6737 16.9257 21.3804 17.8284 21.6481 18.6525L22.6647 21.7812C23.2634 23.6238 21.1544 25.156 19.587 24.0172L16.9256 22.0836C16.2246 21.5743 15.2754 21.5743 14.5744 22.0836L11.913 24.0172C10.3456 25.156 8.23663 23.6238 8.83533 21.7812L9.8519 18.6525C10.1197 17.8284 9.82633 16.9257 9.12536 16.4164L6.46395 14.4828C4.89652 13.344 5.70207 10.8647 7.63952 10.8647H10.9292C11.7957 10.8647 12.5636 10.3068 12.8313 9.48278L13.8479 6.3541Z" fill="#FABF04"/>
</svg>
