<svg width="91" height="198" viewBox="0 0 91 198" fill="none" xmlns="http://www.w3.org/2000/svg">
<path d="M0.00640118 201C1.1511 200.892 1.22144 199.66 1.84175 199.003C7.48208 193.032 13.1352 187.067 18.6605 180.981C28.304 170.365 37.7813 159.584 47.508 149.051C50.6671 145.632 53.9925 142.366 57.062 138.857C67.5945 126.812 78.7409 115.406 89.4077 103.508C90.0216 102.825 90.9169 102.309 91 101.199C90.7378 99.5526 89.3373 98.8317 88.3972 97.7855C74.9615 82.8574 61.5833 67.8719 47.9748 53.116C37.2633 41.4989 26.814 29.6266 16.0897 18.0222C10.6348 12.1211 4.90492 6.46246 0 0V201H0.00640118Z" fill="#FABF04"/>
</svg>
