<svg width="123" height="94" viewBox="0 0 123 94" fill="none" xmlns="http://www.w3.org/2000/svg">
<path d="M0.00012207 0C0.00925446 4.96936 0.0396957 9.93552 0.00925446 14.9049C0.0031662 15.9051 0.240601 16.641 0.87986 17.3768C10.7093 28.6885 20.5113 40.0288 30.3194 51.3596C40.0179 62.5661 49.7134 73.7726 59.4149 84.9728C61.6036 87.5021 63.8289 89.9931 65.9932 92.5479C66.6051 93.2678 66.9765 93.306 67.6157 92.5638C71.153 88.4577 74.7298 84.3962 78.3036 80.3283C78.7145 79.8601 79.0433 79.2644 79.6886 79.1179C79.7252 78.5636 80.1544 78.3056 80.4466 77.9647C85.5242 72.0238 90.8331 66.3281 95.8437 60.3139C97.3049 58.5619 98.8878 56.931 100.392 55.2235C105.022 49.9643 109.533 44.5808 114.124 39.2802C116.757 36.2412 119.445 33.2628 122.13 30.2812C122.425 29.9531 122.458 29.3383 123.003 29.2842V27.6882C122.784 27.9717 122.486 27.873 122.215 27.873C119.688 27.8794 117.165 27.873 114.638 27.8857C109.305 27.9144 103.974 27.9271 98.6412 28.0068C97.7645 28.0195 97.4205 27.7774 97.4266 26.7708C97.4327 25.7578 97.3292 24.7321 97.1709 23.7319C95.5058 13.1306 90.4526 5.33569 81.5638 0.719919C81.2259 0.544718 80.7358 0.567016 80.6384 0.00318548H62.8274C62.7908 0.407742 62.4712 0.426855 62.2246 0.538347C57.625 2.64395 53.9386 6.01419 51.0467 10.4611C48.0756 15.0323 46.5871 20.2023 46.0848 25.7578C46.1061 26.1082 46.17 26.4618 46.1457 26.809C46.0848 27.6564 46.3709 27.9431 47.1746 27.9463C59.768 27.9781 72.3615 28.0546 84.9519 28.1023C88.6018 28.1151 92.2486 28.1087 95.8985 28.0354C97.0522 28.0131 97.454 28.4336 97.3566 29.7237C97.2622 30.9629 97.1527 32.1925 96.97 33.4157C95.8041 41.2648 92.1725 47.5306 86.5409 52.2579C83.0006 55.2331 78.8667 56.931 74.3341 57.3642C67.0769 58.0554 60.6021 55.9052 55.2902 50.474C50.8427 45.9251 46.791 40.9048 42.5841 36.0724C39.8078 32.8837 37.0621 29.66 34.3041 26.4523C26.7182 17.638 19.1354 8.81742 11.5525 0C7.70171 0 3.85091 0 -0.00292206 0H0.00012207Z" fill="#009DE1"/>
</svg>
