<svg width="44" height="101" viewBox="0 0 44 101" fill="none" xmlns="http://www.w3.org/2000/svg">
<path d="M43.3898 0.63501C42.8449 0.689163 42.8114 1.30396 42.5161 1.63207C39.8312 4.61368 37.1402 7.59211 34.5101 10.6311C29.9196 15.9317 25.4083 21.3152 20.7782 26.5744C19.2744 28.2818 17.6915 29.9128 16.2303 31.6648C11.2167 37.679 5.91079 43.3746 0.833225 49.3156C0.540993 49.6564 0.114822 49.9144 0.0752487 50.4687C0.200054 51.2906 0.866711 51.6505 1.31419 52.173C7.70985 59.627 14.0781 67.1097 20.556 74.4777C25.6548 80.2785 30.6289 86.2067 35.7339 92.0011C38.3305 94.9476 41.058 97.7732 43.3928 101V0.63501H43.3898Z" fill="#FABF04"/>
</svg>
