<svg width="53" height="61" viewBox="0 0 53 61" fill="none" xmlns="http://www.w3.org/2000/svg">
<g clip-path="url(#clip0_185_1493)">
<path d="M8.15397 3.78516C4.03144 3.78516 0.679688 7.14844 0.679688 11.2852V48.7852C0.679688 52.9219 4.03144 56.2852 8.15397 56.2852H45.5254C49.6479 56.2852 52.9997 52.9219 52.9997 48.7852V11.2852C52.9997 7.14844 49.6479 3.78516 45.5254 3.78516H8.15397ZM42.851 13.6289L30.7286 27.5273L44.9882 46.4414H33.8235L25.0879 34.9688L15.0794 46.4414H9.53204L22.4953 31.5703L8.81965 13.6289H20.2647L28.171 24.1172L37.3037 13.6289H42.851ZM38.4365 43.1133L18.5946 16.7812H15.2896L35.3534 43.1133H38.4248H38.4365Z" fill="#E0DEE0"/>
</g>
<defs>
<clipPath id="clip0_185_1493">
<rect width="52.32" height="60" fill="white" transform="translate(0.679688 0.0351562)"/>
</clipPath>
</defs>
</svg>
